<svg version="1.1" id="Layer_1" xmlns="http://www.w3.org/2000/svg" xmlns:xlink="http://www.w3.org/1999/xlink" x="0px" y="0px"
	 width="100%" viewBox="0 0 836 780" enable-background="new 0 0 836 780" xml:space="preserve">
<path fill="#FFFDFA" opacity="1.000000" stroke="none" 
	d="
M837.000000,298.000000 
	C837.000000,459.333252 837.000000,620.166504 837.000000,780.999817 
	C558.333557,780.999878 279.667084,780.999878 1.000472,780.999939 
	C1.000314,521.000305 1.000314,261.000671 1.000157,1.000751 
	C279.666199,1.000500 558.332397,1.000500 836.999268,1.000250 
	C837.000000,99.833336 837.000000,198.666672 837.000000,298.000000 
M361.713135,443.488190 
	C361.818512,443.975739 361.923889,444.463318 361.970856,445.806610 
	C363.877319,453.897125 368.015778,460.257416 376.280273,464.163361 
	C377.591370,464.501831 378.902496,464.840332 380.636902,465.732605 
	C381.083740,465.790344 381.530609,465.848083 382.897400,466.118073 
	C385.055084,466.199402 387.212769,466.350861 389.370483,466.351624 
	C428.926086,466.365753 468.481689,466.365234 508.037292,466.349792 
	C509.687805,466.349152 511.338287,466.174042 513.767029,466.003937 
	C513.843018,465.003418 513.919006,464.002930 514.217407,462.087830 
	C514.225952,427.195648 514.247375,392.303436 514.231323,357.411255 
	C514.228394,350.940460 514.074097,344.469696 514.151733,337.182465 
	C512.607361,324.160614 505.956360,316.897614 492.241089,313.944550 
	C460.631561,313.900177 429.022034,313.832977 397.412506,313.824066 
	C386.606232,313.821014 375.799927,313.964172 364.077454,313.871460 
	C360.107330,313.735901 361.696777,316.792603 361.693146,318.487610 
	C361.607300,358.516449 361.623291,398.545502 361.639221,438.574524 
	C361.639832,440.058868 361.828033,441.543152 361.713135,443.488190 
M219.964951,666.059204 
	C292.137024,666.075134 364.309082,666.091553 436.481171,666.100281 
	C437.309937,666.100403 438.138672,666.001160 439.825562,666.080872 
	C442.457275,665.742310 445.115723,665.542969 447.716553,665.043579 
	C472.608795,660.264404 492.931213,636.964844 493.454590,612.326172 
	C493.454590,584.098511 493.454590,555.870911 493.454590,527.299866 
	C479.121552,527.299866 465.476898,527.282471 451.832306,527.303406 
	C421.515991,527.349915 391.199646,527.415588 360.085968,527.177124 
	C326.781891,523.258789 304.043396,497.807617 303.975739,464.153473 
	C303.895355,424.164764 303.954010,384.175781 303.952454,344.186920 
	C303.952362,342.237061 303.952423,340.287231 303.952423,338.053741 
	C301.905945,337.926880 300.452698,337.759125 298.999329,337.758270 
	C273.339813,337.743042 247.679962,337.663208 222.020889,337.770508 
	C190.186584,337.903625 164.986053,363.121796 164.947174,395.035858 
	C164.860275,466.349213 164.903244,537.662720 164.963135,608.976135 
	C164.966324,612.779297 165.255066,616.655334 166.017365,620.373047 
	C171.312653,646.197998 194.581650,666.107971 219.964951,666.059204 
M714.155701,169.105301 
	C713.890686,166.964233 713.796509,164.785553 713.334717,162.687820 
	C707.383606,135.652832 684.133545,116.868202 656.150696,116.832138 
	C585.406982,116.740952 514.663025,116.779350 443.919250,116.850899 
	C439.622925,116.855240 435.254181,117.231857 431.043427,118.063972 
	C406.520691,122.910110 386.229004,146.515732 385.989105,170.988770 
	C385.966705,197.747772 385.929596,224.506790 385.964783,251.265717 
	C385.966553,252.622772 386.591248,253.978989 387.683014,255.661575 
	C389.511902,255.710327 391.340790,255.801254 393.169678,255.801636 
	C432.805756,255.809784 472.441833,255.789139 512.077820,255.836533 
	C516.061279,255.841293 520.124634,255.812943 524.014648,256.534302 
	C554.878296,262.257477 575.152771,286.593567 575.232117,318.081207 
	C575.333740,358.383179 575.261108,398.685547 575.263611,438.987762 
	C575.263733,440.931976 575.263611,442.876160 575.263611,444.896606 
	C576.944763,445.070740 577.922119,445.260132 578.899475,445.260376 
	C605.712036,445.267212 632.524841,445.298584 659.336975,445.191650 
	C662.801880,445.177826 666.315918,444.684814 669.718750,443.983917 
	C693.548279,439.075714 713.747192,415.739899 714.149231,392.066559 
	C714.167664,318.529633 714.186401,244.992676 714.197937,171.455734 
	C714.197998,170.960114 714.098267,170.464478 714.155701,169.105301 
M710.495605,69.833344 
	C715.642822,70.054382 720.929565,69.593941 725.913330,70.613663 
	C748.279175,75.189880 762.557495,95.493019 762.344055,115.711037 
	C761.855164,162.028793 762.192200,208.355270 762.194885,254.678207 
	C762.194946,256.011169 761.826111,257.509247 762.314026,258.632996 
	C762.855896,259.880920 764.125977,261.625122 765.180176,261.698456 
	C769.926392,262.028534 774.708435,261.842468 779.977600,261.842468 
	C779.977600,259.507935 779.977600,257.880188 779.977539,256.252411 
	C779.976562,209.429581 779.767639,162.605545 780.042175,115.784332 
	C780.251160,80.148628 750.953857,51.391102 716.095703,51.769257 
	C669.278381,52.277153 622.451355,51.889629 575.628540,51.903549 
	C573.875610,51.904068 572.122681,52.083397 570.007629,52.199234 
	C570.007629,56.237625 570.004761,59.713596 570.008301,63.189556 
	C570.014954,69.819786 570.016418,69.831062 576.527161,69.831551 
	C620.850525,69.834900 665.173950,69.833107 710.495605,69.833344 
M579.559753,510.919769 
	C625.364990,510.918030 671.173340,511.190186 716.972595,510.665924 
	C725.373474,510.569733 734.345642,508.592743 742.007568,505.152924 
	C768.016296,493.476379 779.690369,472.136169 779.764526,444.147919 
	C779.886292,398.176453 779.800049,352.204407 779.786804,306.232605 
	C779.786377,304.621826 779.629578,303.011139 779.544678,301.382721 
	C773.506958,301.382721 767.967712,301.382721 762.038940,301.382721 
	C762.038940,303.781982 762.039001,305.757080 762.038940,307.732178 
	C762.037720,354.037109 762.178101,400.342987 761.869019,446.645874 
	C761.826904,452.961060 760.606384,459.726166 758.096191,465.482666 
	C750.055298,483.922546 735.515320,493.173950 715.250977,493.169006 
	C668.446350,493.157562 621.641602,493.218506 574.837341,493.086334 
	C570.542175,493.074188 568.509338,494.173615 569.170715,498.673370 
	C569.314514,499.651611 569.185486,500.669098 569.192383,501.668457 
	C569.266357,512.365295 568.178467,510.788452 579.559753,510.919769 
M499.162201,731.842590 
	C500.804077,731.587219 502.440308,731.286316 504.088623,731.083252 
	C534.455750,727.343567 558.733398,700.453491 558.830627,669.960144 
	C558.982605,622.305725 558.878723,574.650513 558.865784,526.995605 
	C558.865356,525.406433 558.674500,523.817261 558.573120,522.239319 
	C552.550476,522.239319 547.125122,522.239319 541.087585,522.239319 
	C541.087585,524.489624 541.087585,526.445068 541.087585,528.400513 
	C541.087402,574.055908 541.097839,619.711304 541.065979,665.366699 
	C541.063538,668.854248 541.180847,672.421509 540.532227,675.816040 
	C536.029663,699.381531 518.129456,714.065979 494.002777,714.083923 
	C447.680908,714.118408 401.359009,714.095032 355.037109,714.095642 
	C353.112427,714.095642 351.187744,714.095703 349.157959,714.095703 
	C349.157959,720.354248 349.157959,725.786438 349.157959,731.863464 
	C399.031342,731.863464 448.628082,731.863464 499.162201,731.842590 
M320.903229,322.500122 
	C320.904663,364.148712 321.205017,405.800140 320.813110,447.445038 
	C320.498657,480.860443 347.925323,510.886597 384.273773,510.909424 
	C431.253357,510.938965 478.232941,510.920807 525.212524,510.908142 
	C526.973145,510.907654 528.733765,510.749298 530.885803,510.645630 
	C530.885803,506.644470 530.889160,503.172668 530.885071,499.700867 
	C530.877319,493.181274 530.875549,493.173065 524.279541,493.172180 
	C477.466553,493.165894 430.653442,493.111694 383.840698,493.210571 
	C376.135681,493.226837 368.947998,491.601196 362.306854,487.869843 
	C346.214569,478.828430 338.223389,464.727234 338.139160,446.507019 
	C337.924255,400.028229 338.066162,353.547760 338.065308,307.067963 
	C338.065277,305.154510 338.065308,303.241058 338.065308,301.301575 
	C331.950165,301.301575 326.705231,301.301575 320.903046,301.301575 
	C320.903046,308.257294 320.903046,314.878723 320.903229,322.500122 
M341.188354,98.904579 
	C349.995422,79.486633 364.802612,69.684250 386.381927,69.775299 
	C432.210358,69.968681 478.040192,69.834099 523.869446,69.832726 
	C525.202576,69.832680 526.662720,70.156326 527.832886,69.715927 
	C528.988831,69.280869 530.655029,68.113831 530.708923,67.187057 
	C530.994812,62.276886 530.843201,57.341240 530.843201,52.065422 
	C528.414978,52.065422 526.768982,52.065418 525.123047,52.065422 
	C478.293884,52.065590 431.464386,52.168049 384.635620,52.033054 
	C348.210846,51.928055 320.364655,82.652275 320.763458,115.770508 
	C321.327271,162.592865 320.901001,209.427124 320.915741,256.256287 
	C320.916290,258.004669 321.104218,259.753021 321.205322,261.509949 
	C327.055756,261.509949 332.301544,261.509949 338.065643,261.509949 
	C338.065643,259.200531 338.065643,257.240753 338.065674,255.281006 
	C338.066010,209.451752 337.959442,163.621948 338.195740,117.793900 
	C338.226929,111.745918 340.007538,105.706955 341.188354,98.904579 
M236.500000,731.887451 
	C260.770660,731.887451 285.041351,731.887451 309.604736,731.887451 
	C309.604736,725.741577 309.604736,720.200806 309.604736,714.101562 
	C307.320129,714.101562 305.361237,714.101624 303.402344,714.101562 
	C256.925812,714.100159 210.448257,714.245483 163.973846,713.928894 
	C157.498230,713.884888 150.523392,712.716248 144.666229,710.090576 
	C126.315430,701.864136 117.281723,686.854126 117.189293,666.915527 
	C116.975380,620.773132 117.120354,574.629089 117.119797,528.485718 
	C117.119774,526.410278 117.119797,524.334900 117.119797,522.283936 
	C110.969559,522.283936 105.726707,522.283936 100.278587,522.283936 
	C100.153816,523.585205 99.980194,524.551147 99.980202,525.517029 
	C99.980705,574.492249 99.887260,623.467896 100.103104,672.442200 
	C100.145378,682.033447 103.033066,691.167175 108.013573,699.449036 
	C121.039070,721.108398 140.347626,731.791870 165.535355,731.871521 
	C188.856689,731.945251 212.178436,731.887268 236.500000,731.887451 
M309.944824,279.568390 
	C309.944824,277.473816 309.944824,275.379242 309.944824,273.132324 
	C307.850647,273.011322 306.540436,272.869629 305.230194,272.869446 
	C257.076599,272.863190 208.923019,272.866272 160.769424,272.887482 
	C158.606979,272.888458 156.411163,272.861053 154.287201,273.199860 
	C122.086426,278.336304 100.011955,304.139618 99.981789,336.744598 
	C99.938469,383.565216 99.966240,430.385864 99.980774,477.206512 
	C99.981316,478.958710 100.161171,480.710876 100.258797,482.487152 
	C106.086815,482.487152 111.333939,482.487152 117.117279,482.487152 
	C117.117279,480.185822 117.117271,478.228119 117.117287,476.270386 
	C117.117622,430.116241 117.073708,383.961975 117.189201,337.808136 
	C117.200317,333.369110 117.670883,328.787750 118.834229,324.519379 
	C124.645943,303.195831 141.914307,290.051117 164.031784,290.017395 
	C210.519058,289.946503 257.006500,289.991760 303.493896,289.989319 
	C305.440643,289.989227 307.387390,289.989319 309.944702,289.989319 
	C309.944702,286.430176 309.944702,283.481781 309.944824,279.568390 
M415.500000,289.990601 
	C442.829102,290.002350 470.167786,289.623199 497.480652,290.294922 
	C504.494385,290.467438 512.101685,292.736450 518.264832,296.154633 
	C534.301392,305.048767 541.830444,319.574280 541.855408,337.849548 
	C541.918518,384.008942 541.877197,430.168518 541.877686,476.328003 
	C541.877686,478.277618 541.877686,480.227264 541.877686,482.837067 
	C545.587158,482.837067 548.701111,482.838257 551.815063,482.836853 
	C559.015930,482.833557 559.018677,482.833038 559.011841,475.878601 
	C558.967590,430.885620 558.940918,385.892609 558.844299,340.899719 
	C558.835754,336.923798 558.448303,332.941742 558.099243,328.974609 
	C555.341003,297.627167 526.786011,272.378448 495.394806,272.725311 
	C448.407837,273.244537 401.410919,272.856232 354.418213,272.870667 
	C352.667816,272.871185 350.917480,273.046906 349.253479,273.136353 
	C349.253479,279.018494 349.253479,284.263062 349.253479,289.990540 
	C371.246490,289.990540 392.873260,289.990540 415.500000,289.990601 
z"/>
<path fill="#F6C853" opacity="1.000000" stroke="none" 
	d="
M713.985596,392.990784 
	C713.747192,415.739899 693.548279,439.075714 669.718750,443.983917 
	C666.315918,444.684814 662.801880,445.177826 659.336975,445.191650 
	C632.524841,445.298584 605.712036,445.267212 578.899475,445.260376 
	C577.922119,445.260132 576.944763,445.070740 575.263611,444.896606 
	C575.263611,442.876160 575.263733,440.931976 575.263611,438.987762 
	C575.261108,398.685547 575.333740,358.383179 575.232117,318.081207 
	C575.152771,286.593567 554.878296,262.257477 524.014648,256.534302 
	C520.124634,255.812943 516.061279,255.841293 512.077820,255.836533 
	C472.441833,255.789139 432.805756,255.809784 393.169678,255.801636 
	C391.340790,255.801254 389.511902,255.710327 387.336761,255.004562 
	C386.992950,227.993271 387.011871,201.638977 386.960297,175.284805 
	C386.956909,173.546234 386.415833,171.808731 386.124817,170.070724 
	C386.229004,146.515732 406.520691,122.910110 431.043427,118.063972 
	C435.254181,117.231857 439.622925,116.855240 443.919250,116.850899 
	C514.663025,116.779350 585.406982,116.740952 656.150696,116.832138 
	C684.133545,116.868202 707.383606,135.652832 713.334717,162.687820 
	C713.796509,164.785553 713.890686,166.964233 713.794922,169.828903 
	C713.289368,171.860306 713.018433,173.168091 713.018066,174.475922 
	C712.997681,245.750351 712.993774,317.024780 713.041199,388.299194 
	C713.042236,389.863251 713.657043,391.426941 713.985596,392.990784 
z"/>
<path fill="#F6C853" opacity="1.000000" stroke="none" 
	d="
M493.107544,613.069153 
	C492.931213,636.964844 472.608795,660.264404 447.716553,665.043579 
	C445.115723,665.542969 442.457275,665.742310 439.099182,665.727661 
	C437.060150,665.251282 435.747528,665.020569 434.434845,665.020264 
	C364.208923,665.002808 293.983032,664.998840 223.757156,665.043457 
	C222.185242,665.044434 220.613708,665.621033 219.041992,665.929077 
	C194.581650,666.107971 171.312653,646.197998 166.017365,620.373047 
	C165.255066,616.655334 164.966324,612.779297 164.963135,608.976135 
	C164.903244,537.662720 164.860275,466.349213 164.947174,395.035858 
	C164.986053,363.121796 190.186584,337.903625 222.020889,337.770508 
	C247.679962,337.663208 273.339813,337.743042 298.999329,337.758270 
	C300.452698,337.759125 301.905945,337.926880 303.952423,338.053741 
	C303.952423,340.287231 303.952362,342.237061 303.952454,344.186920 
	C303.954010,384.175781 303.895355,424.164764 303.975739,464.153473 
	C304.043396,497.807617 326.781891,523.258789 360.285492,527.513672 
	C360.291718,528.105530 360.087280,528.354065 359.920990,528.625916 
	C359.902832,528.655579 360.101257,528.904846 360.204102,528.908325 
	C361.526093,528.953308 362.848938,528.994202 364.171570,528.994324 
	C404.965302,528.998230 445.759369,529.069702 486.552368,528.894714 
	C491.020874,528.875488 492.132294,530.150391 492.095306,534.509888 
	C491.889130,558.817871 491.971863,583.128540 492.044373,607.438110 
	C492.049988,609.316101 492.737183,611.192200 493.107544,613.069153 
z"/>
<path fill="#000000" opacity="1.000000" stroke="none" 
	d="
M375.870422,463.736938 
	C368.015778,460.257416 363.877319,453.897125 362.442474,445.259583 
	C363.276459,442.679382 363.951416,440.646759 363.955078,438.612976 
	C364.028656,397.753876 364.024933,356.894592 364.503021,316.024292 
	C405.800201,316.008820 446.631165,316.028992 487.461823,315.920624 
	C489.322662,315.915680 491.180389,314.751770 493.039581,314.127625 
	C505.956360,316.897614 512.607361,324.160614 513.676758,337.688690 
	C512.802856,340.030121 512.059021,341.864716 512.055725,343.700623 
	C511.988251,381.865845 511.933899,420.031525 512.099670,458.196136 
	C512.119141,462.680756 511.059204,464.131439 506.336182,464.106628 
	C468.671844,463.908966 431.005859,464.050903 393.340881,463.932007 
	C388.246460,463.915924 383.158600,462.975952 378.057373,462.606628 
	C377.359314,462.556091 376.600891,463.339569 375.870422,463.736938 
z"/>
<path fill="#B8B8A8" opacity="1.000000" stroke="none" 
	d="
M709.996460,69.833160 
	C665.173950,69.833107 620.850525,69.834900 576.527161,69.831551 
	C570.016418,69.831062 570.014954,69.819786 570.008301,63.189556 
	C570.004761,59.713596 570.007629,56.237625 570.007629,52.199234 
	C572.122681,52.083397 573.875610,51.904068 575.628540,51.903549 
	C622.451355,51.889629 669.278381,52.277153 716.095703,51.769257 
	C750.953857,51.391102 780.251160,80.148628 780.042175,115.784332 
	C779.767639,162.605545 779.976562,209.429581 779.977539,256.252411 
	C779.977600,257.880188 779.977600,259.507935 779.977600,261.842468 
	C774.708435,261.842468 769.926392,262.028534 765.180176,261.698456 
	C764.125977,261.625122 762.855896,259.880920 762.314026,258.632996 
	C761.826111,257.509247 762.194946,256.011169 762.194885,254.678207 
	C762.192200,208.355270 761.855164,162.028793 762.344055,115.711037 
	C762.557495,95.493019 748.279175,75.189880 725.913330,70.613663 
	C720.929565,69.593941 715.642822,70.054382 709.996460,69.833160 
z"/>
<path fill="#B8B8A8" opacity="1.000000" stroke="none" 
	d="
M579.070679,510.919678 
	C568.178467,510.788452 569.266357,512.365295 569.192383,501.668457 
	C569.185486,500.669098 569.314514,499.651611 569.170715,498.673370 
	C568.509338,494.173615 570.542175,493.074188 574.837341,493.086334 
	C621.641602,493.218506 668.446350,493.157562 715.250977,493.169006 
	C735.515320,493.173950 750.055298,483.922546 758.096191,465.482666 
	C760.606384,459.726166 761.826904,452.961060 761.869019,446.645874 
	C762.178101,400.342987 762.037720,354.037109 762.038940,307.732178 
	C762.039001,305.757080 762.038940,303.781982 762.038940,301.382721 
	C767.967712,301.382721 773.506958,301.382721 779.544678,301.382721 
	C779.629578,303.011139 779.786377,304.621826 779.786804,306.232605 
	C779.800049,352.204407 779.886292,398.176453 779.764526,444.147919 
	C779.690369,472.136169 768.016296,493.476379 742.007568,505.152924 
	C734.345642,508.592743 725.373474,510.569733 716.972595,510.665924 
	C671.173340,511.190186 625.364990,510.918030 579.070679,510.919678 
z"/>
<path fill="#B9B9A9" opacity="1.000000" stroke="none" 
	d="
M498.693542,731.853027 
	C448.628082,731.863464 399.031342,731.863464 349.157959,731.863464 
	C349.157959,725.786438 349.157959,720.354248 349.157959,714.095703 
	C351.187744,714.095703 353.112427,714.095642 355.037109,714.095642 
	C401.359009,714.095032 447.680908,714.118408 494.002777,714.083923 
	C518.129456,714.065979 536.029663,699.381531 540.532227,675.816040 
	C541.180847,672.421509 541.063538,668.854248 541.065979,665.366699 
	C541.097839,619.711304 541.087402,574.055908 541.087585,528.400513 
	C541.087585,526.445068 541.087585,524.489624 541.087585,522.239319 
	C547.125122,522.239319 552.550476,522.239319 558.573120,522.239319 
	C558.674500,523.817261 558.865356,525.406433 558.865784,526.995605 
	C558.878723,574.650513 558.982605,622.305725 558.830627,669.960144 
	C558.733398,700.453491 534.455750,727.343567 504.088623,731.083252 
	C502.440308,731.286316 500.804077,731.587219 498.693542,731.853027 
z"/>
<path fill="#B8B8A8" opacity="1.000000" stroke="none" 
	d="
M320.903137,322.000153 
	C320.903046,314.878723 320.903046,308.257294 320.903046,301.301575 
	C326.705231,301.301575 331.950165,301.301575 338.065308,301.301575 
	C338.065308,303.241058 338.065277,305.154510 338.065308,307.067963 
	C338.066162,353.547760 337.924255,400.028229 338.139160,446.507019 
	C338.223389,464.727234 346.214569,478.828430 362.306854,487.869843 
	C368.947998,491.601196 376.135681,493.226837 383.840698,493.210571 
	C430.653442,493.111694 477.466553,493.165894 524.279541,493.172180 
	C530.875549,493.173065 530.877319,493.181274 530.885071,499.700867 
	C530.889160,503.172668 530.885803,506.644470 530.885803,510.645630 
	C528.733765,510.749298 526.973145,510.907654 525.212524,510.908142 
	C478.232941,510.920807 431.253357,510.938965 384.273773,510.909424 
	C347.925323,510.886597 320.498657,480.860443 320.813110,447.445038 
	C321.205017,405.800140 320.904663,364.148712 320.903137,322.000153 
z"/>
<path fill="#B8B8A8" opacity="1.000000" stroke="none" 
	d="
M341.083130,99.284195 
	C340.007538,105.706955 338.226929,111.745918 338.195740,117.793900 
	C337.959442,163.621948 338.066010,209.451752 338.065674,255.281006 
	C338.065643,257.240753 338.065643,259.200531 338.065643,261.509949 
	C332.301544,261.509949 327.055756,261.509949 321.205322,261.509949 
	C321.104218,259.753021 320.916290,258.004669 320.915741,256.256287 
	C320.901001,209.427124 321.327271,162.592865 320.763458,115.770508 
	C320.364655,82.652275 348.210846,51.928055 384.635620,52.033054 
	C431.464386,52.168049 478.293884,52.065590 525.123047,52.065422 
	C526.768982,52.065418 528.414978,52.065422 530.843201,52.065422 
	C530.843201,57.341240 530.994812,62.276886 530.708923,67.187057 
	C530.655029,68.113831 528.988831,69.280869 527.832886,69.715927 
	C526.662720,70.156326 525.202576,69.832680 523.869446,69.832726 
	C478.040192,69.834099 432.210358,69.968681 386.381927,69.775299 
	C364.802612,69.684250 349.995422,79.486633 341.083130,99.284195 
z"/>
<path fill="#B8B8A8" opacity="1.000000" stroke="none" 
	d="
M236.000000,731.887390 
	C212.178436,731.887268 188.856689,731.945251 165.535355,731.871521 
	C140.347626,731.791870 121.039070,721.108398 108.013573,699.449036 
	C103.033066,691.167175 100.145378,682.033447 100.103104,672.442200 
	C99.887260,623.467896 99.980705,574.492249 99.980202,525.517029 
	C99.980194,524.551147 100.153816,523.585205 100.278587,522.283936 
	C105.726707,522.283936 110.969559,522.283936 117.119797,522.283936 
	C117.119797,524.334900 117.119774,526.410278 117.119797,528.485718 
	C117.120354,574.629089 116.975380,620.773132 117.189293,666.915527 
	C117.281723,686.854126 126.315430,701.864136 144.666229,710.090576 
	C150.523392,712.716248 157.498230,713.884888 163.973846,713.928894 
	C210.448257,714.245483 256.925812,714.100159 303.402344,714.101562 
	C305.361237,714.101624 307.320129,714.101562 309.604736,714.101562 
	C309.604736,720.200806 309.604736,725.741577 309.604736,731.887451 
	C285.041351,731.887451 260.770660,731.887451 236.000000,731.887390 
z"/>
<path fill="#B7B7A7" opacity="1.000000" stroke="none" 
	d="
M309.944763,280.050903 
	C309.944702,283.481781 309.944702,286.430176 309.944702,289.989319 
	C307.387390,289.989319 305.440643,289.989227 303.493896,289.989319 
	C257.006500,289.991760 210.519058,289.946503 164.031784,290.017395 
	C141.914307,290.051117 124.645943,303.195831 118.834229,324.519379 
	C117.670883,328.787750 117.200317,333.369110 117.189201,337.808136 
	C117.073708,383.961975 117.117622,430.116241 117.117287,476.270386 
	C117.117271,478.228119 117.117279,480.185822 117.117279,482.487152 
	C111.333939,482.487152 106.086815,482.487152 100.258797,482.487152 
	C100.161171,480.710876 99.981316,478.958710 99.980774,477.206512 
	C99.966240,430.385864 99.938469,383.565216 99.981789,336.744598 
	C100.011955,304.139618 122.086426,278.336304 154.287201,273.199860 
	C156.411163,272.861053 158.606979,272.888458 160.769424,272.887482 
	C208.923019,272.866272 257.076599,272.863190 305.230194,272.869446 
	C306.540436,272.869629 307.850647,273.011322 309.944824,273.132324 
	C309.944824,275.379242 309.944824,277.473816 309.944763,280.050903 
z"/>
<path fill="#B8B8A8" opacity="1.000000" stroke="none" 
	d="
M415.000000,289.990570 
	C392.873260,289.990540 371.246490,289.990540 349.253479,289.990540 
	C349.253479,284.263062 349.253479,279.018494 349.253479,273.136353 
	C350.917480,273.046906 352.667816,272.871185 354.418213,272.870667 
	C401.410919,272.856232 448.407837,273.244537 495.394806,272.725311 
	C526.786011,272.378448 555.341003,297.627167 558.099243,328.974609 
	C558.448303,332.941742 558.835754,336.923798 558.844299,340.899719 
	C558.940918,385.892609 558.967590,430.885620 559.011841,475.878601 
	C559.018677,482.833038 559.015930,482.833557 551.815063,482.836853 
	C548.701111,482.838257 545.587158,482.837067 541.877686,482.837067 
	C541.877686,480.227264 541.877686,478.277618 541.877686,476.328003 
	C541.877197,430.168518 541.918518,384.008942 541.855408,337.849548 
	C541.830444,319.574280 534.301392,305.048767 518.264832,296.154633 
	C512.101685,292.736450 504.494385,290.467438 497.480652,290.294922 
	C470.167786,289.623199 442.829102,290.002350 415.000000,289.990570 
z"/>
<path fill="#141414" opacity="1.000000" stroke="none" 
	d="
M376.075317,463.950134 
	C376.600891,463.339569 377.359314,462.556091 378.057373,462.606628 
	C383.158600,462.975952 388.246460,463.915924 393.340881,463.932007 
	C431.005859,464.050903 468.671844,463.908966 506.336182,464.106628 
	C511.059204,464.131439 512.119141,462.680756 512.099670,458.196136 
	C511.933899,420.031525 511.988251,381.865845 512.055725,343.700623 
	C512.059021,341.864716 512.802856,340.030121 513.595764,338.096924 
	C514.074097,344.469696 514.228394,350.940460 514.231323,357.411255 
	C514.247375,392.303436 514.225952,427.195648 513.837830,462.755249 
	C513.301758,464.308533 513.145264,465.194366 512.988770,466.080231 
	C511.338287,466.174042 509.687805,466.349152 508.037292,466.349792 
	C468.481689,466.365234 428.926086,466.365753 389.370483,466.351624 
	C387.212769,466.350861 385.055084,466.199402 382.204590,465.776672 
	C381.079041,465.349792 380.646301,465.264282 380.213593,465.178802 
	C378.902496,464.840332 377.591370,464.501831 376.075317,463.950134 
z"/>
<path fill="#F6C539" opacity="1.000000" stroke="none" 
	d="
M493.281067,612.697632 
	C492.737183,611.192200 492.049988,609.316101 492.044373,607.438110 
	C491.971863,583.128540 491.889130,558.817871 492.095306,534.509888 
	C492.132294,530.150391 491.020874,528.875488 486.552368,528.894714 
	C445.759369,529.069702 404.965302,528.998230 364.171570,528.994324 
	C362.848938,528.994202 361.526093,528.953308 360.204102,528.908325 
	C360.101257,528.904846 359.902832,528.655579 359.920990,528.625916 
	C360.087280,528.354065 360.291718,528.105530 360.684174,527.661865 
	C391.199646,527.415588 421.515991,527.349915 451.832306,527.303406 
	C465.476898,527.282471 479.121552,527.299866 493.454590,527.299866 
	C493.454590,555.870911 493.454590,584.098511 493.281067,612.697632 
z"/>
<path fill="#111110" opacity="1.000000" stroke="none" 
	d="
M492.640320,314.036072 
	C491.180389,314.751770 489.322662,315.915680 487.461823,315.920624 
	C446.631165,316.028992 405.800201,316.008820 364.489044,315.769592 
	C364.002380,315.356262 363.995972,315.186584 364.207642,314.911438 
	C364.705139,314.617706 364.894409,314.362549 364.993622,314.040558 
	C375.799927,313.964172 386.606232,313.821014 397.412506,313.824066 
	C429.022034,313.832977 460.631561,313.900177 492.640320,314.036072 
z"/>
<path fill="#F5C436" opacity="1.000000" stroke="none" 
	d="
M714.067383,392.528687 
	C713.657043,391.426941 713.042236,389.863251 713.041199,388.299194 
	C712.993774,317.024780 712.997681,245.750351 713.018066,174.475922 
	C713.018433,173.168091 713.289368,171.860306 713.739624,170.260681 
	C714.098267,170.464478 714.197998,170.960114 714.197937,171.455734 
	C714.186401,244.992676 714.167664,318.529633 714.067383,392.528687 
z"/>
<path fill="#F5C330" opacity="1.000000" stroke="none" 
	d="
M219.503479,665.994141 
	C220.613708,665.621033 222.185242,665.044434 223.757156,665.043457 
	C293.983032,664.998840 364.208923,665.002808 434.434845,665.020264 
	C435.747528,665.020569 437.060150,665.251282 438.670105,665.661377 
	C438.138672,666.001160 437.309937,666.100403 436.481171,666.100281 
	C364.309082,666.091553 292.137024,666.075134 219.503479,665.994141 
z"/>
<path fill="#1E1D1D" opacity="1.000000" stroke="none" 
	d="
M363.989532,315.016876 
	C363.995972,315.186584 364.002380,315.356262 364.022797,315.780640 
	C364.024933,356.894592 364.028656,397.753876 363.955078,438.612976 
	C363.951416,440.646759 363.276459,442.679382 362.471680,444.831696 
	C361.923889,444.463318 361.818512,443.975739 362.138641,442.979126 
	C362.709442,440.496765 362.980194,438.523590 362.981476,436.550201 
	C363.006439,397.928345 362.986053,359.306488 363.042023,320.684723 
	C363.044769,318.794983 363.659668,316.906128 363.989532,315.016876 
z"/>
<path fill="#000000" opacity="1.000000" stroke="none" 
	d="
M364.207642,314.911438 
	C363.659668,316.906128 363.044769,318.794983 363.042023,320.684723 
	C362.986053,359.306488 363.006439,397.928345 362.981476,436.550201 
	C362.980194,438.523590 362.709442,440.496765 362.246460,442.748779 
	C361.828033,441.543152 361.639832,440.058868 361.639221,438.574524 
	C361.623291,398.545502 361.607300,358.516449 361.693146,318.487610 
	C361.696777,316.792603 360.107330,313.735901 364.535522,313.955994 
	C364.894409,314.362549 364.705139,314.617706 364.207642,314.911438 
z"/>
<path fill="#F6C42D" opacity="1.000000" stroke="none" 
	d="
M386.056946,170.529755 
	C386.415833,171.808731 386.956909,173.546234 386.960297,175.284805 
	C387.011871,201.638977 386.992950,227.993271 386.958191,254.841583 
	C386.591248,253.978989 385.966553,252.622772 385.964783,251.265717 
	C385.929596,224.506790 385.966705,197.747772 386.056946,170.529755 
z"/>
<path fill="#000000" opacity="1.000000" stroke="none" 
	d="
M513.377930,466.042084 
	C513.145264,465.194366 513.301758,464.308533 513.726624,463.212524 
	C513.919006,464.002930 513.843018,465.003418 513.377930,466.042084 
z"/>
<path fill="#000000" opacity="1.000000" stroke="none" 
	d="
M380.425232,465.455688 
	C380.646301,465.264282 381.079041,465.349792 381.744598,465.670532 
	C381.530609,465.848083 381.083740,465.790344 380.425232,465.455688 
z"/>
</svg>