<svg xmlns="http://www.w3.org/2000/svg" version="1.1" xmlns:xlink="http://www.w3.org/1999/xlink" xmlns:svgjs="http://svgjs.dev/svgjs" viewBox="0 0 7.885173079204133 7.566361599569707"><g transform="matrix(0.8545708811344821,0,0,0.8545708811344821,2.7426809223025037,2.3653934895570057)"><g><path d=" M 1.2023394324512227 -0.8657688434047393 Q 1.1495313805660037 -0.8612622198251585 1.1108917334077129 -0.8730192461278755 Q 1.072252086249422 -0.8847762724305925 1.0490933554243569 -0.9209380365824171 Q 1.0259346245992917 -0.9570998007342416 1.020067510882479 -1.0258499060187718 L 1.0170914387072842 -1.0607231478297654 Q 1.04797916716845 -1.0633590974706522 1.0778705172921588 -1.0659100164779622 Q 1.1077618674158676 -1.068460935485272 1.1376532175395764 -1.071011854492582 L 1.1414795960505413 -1.0261748293070188 Q 1.14462572949289 -0.9893088308211113 1.1522620968723831 -0.9703896370421625 Q 1.1598984642518764 -0.9514704432632138 1.1714963557157305 -0.9449329427016335 Q 1.1830942471795844 -0.9383954421400533 1.1980399222414388 -0.9396709016437083 Q 1.220956624002949 -0.9416266062159792 1.2330047261045975 -0.9592147623373084 Q 1.2450528282062459 -0.9768029184586378 1.24097135779455 -1.024629078656572 Q 1.2378252243522012 -1.0614950771424794 1.2247938067502717 -1.0789502240992976 Q 1.2117623891483422 -1.096405371056116 1.185875078425783 -1.105737956097446 Q 1.1599877677032235 -1.1150705411387762 1.119683491771593 -1.1286927781660416 Q 1.0835347904569446 -1.1406623810527012 1.0588324453903175 -1.1596306215670262 Q 1.0341301003236907 -1.1785988620813517 1.0204489583372 -1.2095476319106273 Q 1.0067678163507097 -1.2404964017399032 1.0028564072061679 -1.2863298052629233 Q 0.9979246304587022 -1.3441197488354268 1.0103073918805132 -1.3813073438043209 Q 1.022690153302324 -1.4184949387732149 1.0576549571654827 -1.4380387994668151 Q 1.0926197610286412 -1.4575826601604152 1.1543952179509729 -1.4628545594421891 Q 1.2341054849475295 -1.4696570101283486 1.2793851211478566 -1.438895759413106 Q 1.3246647573481838 -1.4081345086978632 1.3305318710649967 -1.3393844034133329 L 1.3365690460489632 -1.268641541453889 Q 1.3076740742627115 -1.266175653080156 1.2792772916451882 -1.2637522800232115 Q 1.250880509027665 -1.2613289069662672 1.220989158903956 -1.2587779879589573 L 1.2179280560951842 -1.2946476081074079 Q 1.2141016775842193 -1.339484633292971 1.2021091536365354 -1.3565266217146377 Q 1.1901166296888512 -1.3735686101363047 1.1632144145775134 -1.3712727830297258 Q 1.1373085778036325 -1.3690619865567237 1.127708906228838 -1.3521845961880654 Q 1.1181092346540433 -1.335307205819407 1.121170337462815 -1.2994375856709568 Q 1.123976348370856 -1.266557100534877 1.1390005226476994 -1.2492720148452126 Q 1.1540246969245427 -1.2319869291555485 1.1757564330301205 -1.2243069782548242 Q 1.197488169135698 -1.2166270273541 1.222166524936858 -1.2097003575228353 Q 1.2674526925557732 -1.1965032736634549 1.2968393220921655 -1.181447510498114 Q 1.3262259516285577 -1.166391747332773 1.3417723043395966 -1.1371076062768366 Q 1.3573186570506355 -1.1078234652209002 1.3621654031645243 -1.0510298999858536 Q 1.367607363713452 -0.9872616863886083 1.3493738782172646 -0.9480693401120669 Q 1.3311403927210774 -0.9088769938355254 1.2931439385287593 -0.8895762304099227 Q 1.2551474843364414 -0.87027546698432 1.2023394324512227 -0.8657688434047393 M 1.4427995002608727 -0.8868523580812948 L 1.4911984225631323 -1.4758672512036841 L 1.7004930546370778 -1.4586696645988204 Q 1.7563049565234632 -1.45408364150419 1.7835356974813323 -1.4252568007670328 Q 1.8107664384392013 -1.3964299600298755 1.8069174547704936 -1.3495878280895164 L 1.8014306057108467 -1.2828128740468765 Q 1.7993013807026255 -1.256900205313912 1.7900658671190104 -1.2360866210755626 Q 1.7808303535353953 -1.2152730368372133 1.7646523379154804 -1.2015518193037074 Q 1.7527884597942094 -1.1914895931124698 1.7353542013899892 -1.1869019320640843 Q 1.7179199429857688 -1.1823142710156986 1.7018917920343974 -1.182627922223336 L 1.7018098987648504 -1.181631281118222 Q 1.718752797551789 -1.1802390955359234 1.7343714821554255 -1.174942238802716 Q 1.749990166759062 -1.1696453820695083 1.7629604229960947 -1.1565391830344822 Q 1.7788387092789226 -1.1421906630857015 1.786962521765256 -1.1189473055251662 Q 1.7950863342515895 -1.0957039479646309 1.7923838563565395 -1.062814791495868 L 1.785750501523235 -0.982086861981632 Q 1.7818196245849802 -0.9342480889361587 1.7631639280728306 -0.908690018045605 Q 1.744508231560681 -0.8831319471550513 1.7132507985244598 -0.8751649602725367 Q 1.681993365488239 -0.8671979733900219 1.6401344390734498 -0.8706374907109947 L 1.4427995002608727 -0.8868523580812948 M 1.564401999001579 -0.938065952956255 L 1.6182206186777364 -0.9336437164007185 Q 1.6331702352544468 -0.9324153173575139 1.6430887387355384 -0.9371188573749449 Q 1.65300724221663 -0.9418223973923758 1.6597171673379616 -0.9563216009865778 Q 1.6664270924592932 -0.9708208045807799 1.6688019972761554 -0.9997233966290867 L 1.6745345261444435 -1.0694882739870686 Q 1.6778102569263222 -1.1093539181916294 1.66537926787662 -1.122917491144439 Q 1.6529482788269179 -1.1364810640972485 1.6310221745144093 -1.1382827160272817 L 1.581190119258708 -1.1423773795046301 L 1.564401999001579 -0.938065952956255 M 1.5871683279356368 -1.2151321801779542 L 1.634010459875996 -1.2112831965092465 Q 1.6569332052936185 -1.2093996513096663 1.6716981525254093 -1.2242403498526064 Q 1.6864630997572003 -1.2390810483955468 1.689738830539079 -1.2789466926001078 L 1.6945705334423504 -1.3377485178018356 Q 1.6971092247983064 -1.3686443920603704 1.6867534112283793 -1.3830408195791999 Q 1.6763975976584522 -1.3974372470980292 1.6584580577663997 -1.3989113259498747 L 1.6026461558800142 -1.403497349044505 L 1.5871683279356368 -1.2151321801779542" fill="#262626" fill-rule="nonzero"></path></g><g><path d=" M -1.3274773083053526 1.029179109223166 Q -0.97360821410693 1.0574927838555397 -0.9951425581935242 1.3266326583163117 Q -1.0038360526581123 1.4352854224504754 -1.0753084008702232 1.4947745259993335 Q -1.146780749082334 1.5542636295481915 -1.2733761715138825 1.5441345121444972 L -1.266198056818351 1.454421220657573 Q -1.1784783940311365 1.4614398216932039 -1.1299330679147332 1.4251961834617561 Q -1.0813877417983297 1.3889525452303086 -1.0758845205317558 1.3201723550903335 Q -1.0687064058362243 1.2304590636034094 -1.1269995950094012 1.1816543087528806 Q -1.185292784182578 1.1328495539023518 -1.3098945779144169 1.122879950158558 L -1.3597352954071524 1.1188921086610406 Q -1.4843370891389913 1.108922504917247 -1.549648879347799 1.1478374128539326 Q -1.6149606695566063 1.1867523207906183 -1.6221387842521378 1.2764656122775424 Q -1.6278015191786126 1.3472394311172269 -1.5861750250481397 1.3911994696341083 Q -1.5445485309176668 1.43515950815099 -1.4578256824803069 1.4420983523566704 L -1.4647645266859872 1.52882120079403 Q -1.5923567634673903 1.5186123265603855 -1.652005380676149 1.4491336070479839 Q -1.7116539978849077 1.3796548875355823 -1.7028807465903695 1.2700053090515642 Q -1.6813464025037752 1.000865434590792 -1.3274773083053526 1.029179109223166 M -1.6336328882381692 1.7912351749295297 Q -1.5734516498805728 1.7347487292124715 -1.4348318236056776 1.715138941770536 Q -1.2962119973307824 1.6955291543286006 -1.2227241174947299 1.7331061621552213 Q -1.1492362376586773 1.7706831699818417 -1.1362097360008203 1.8627663402930221 Q -1.1231832343429633 1.9548495106042025 -1.1833644727005597 2.0113359563212607 Q -1.243545711058156 2.067822402038319 -1.382165537333051 2.0874321894802543 Q -1.5207853636079463 2.10704197692219 -1.5942732434439988 2.0694649690955695 Q -1.6677611232800513 2.0318879612689487 -1.6807876249379086 1.9398047909577685 Q -1.6938141265957656 1.847721620646588 -1.6336328882381692 1.7912351749295297 M -1.4130242403275473 2.00494133877851 L -1.3753988589100756 1.9996186821871276 Q -1.1942029431364627 1.973985888602312 -1.2084900739870157 1.8729914437448885 Q -1.2227772048375685 1.7719969988874649 -1.4039731206111816 1.7976297924722804 L -1.441598502028653 1.8029524490636628 Q -1.622794417802266 1.8285852426484785 -1.6085072869517132 1.9295796875059021 Q -1.5942201561011602 2.0305741323633257 -1.4130242403275473 2.00494133877851 M -1.5239917180530542 2.361043406407202 Q -1.473581653383607 2.298680954723339 -1.3412445897901044 2.2529983365907365 Q -1.2126885851564158 2.208620936119065 -1.133271076036988 2.2272249476559782 Q -1.05385356691756 2.245828959192891 -1.0310122578512586 2.3119974909896426 Q -1.0182863856571767 2.3488628158478324 -1.0240941214094246 2.3826047808977826 Q -1.0299018571616725 2.416346745947733 -1.0530725772222995 2.438098015608883 L -1.051441055146135 2.442824339308651 L -0.817960664377598 2.362227148746131 L -0.7912037023285021 2.4397388574223253 L -1.474630109314949 2.675656949635694 L -1.494860983059387 2.6170505357585716 L -1.4407891824897796 2.5867480542898766 L -1.442420704565944 2.5820217305901085 Q -1.482650019093698 2.5758086594793737 -1.5099265492398257 2.5534873489625745 Q -1.5372030793859535 2.531166038445775 -1.5489500383343369 2.4971365078074452 Q -1.5744017827225012 2.423405858091065 -1.5239917180530542 2.361043406407202 M -1.2707424748153682 2.518526963642678 L -1.2386034736569462 2.5074326135247604 Q -1.0618389672856245 2.4464136878762126 -1.0925115823175147 2.357558802320575 Q -1.1081741942486927 2.3121860948028026 -1.1563255796170533 2.3044760956388837 Q -1.204476964985414 2.2967660964749648 -1.2961676447609123 2.3284176247525536 L -1.3320877048791488 2.3408171925314027 Q -1.4237783846546472 2.3724687208089916 -1.4569197669222955 2.408240899682938 Q -1.4900611491899438 2.444013078556884 -1.4743985372587658 2.4893857860746564 Q -1.4437259222268755 2.578240671630294 -1.2707424748153682 2.518526963642678 M -1.3042090296265527 2.9134217635151294 Q -1.2722836678360088 2.8377826778877706 -1.1476229728192855 2.7657013965593458 Q -1.0255593756154107 2.69512180859193 -0.9430298662319851 2.70400325447259 Q -0.8605003568485596 2.712884700353249 -0.810443911481598 2.799454627448196 Q -0.7663942395586718 2.875636163291749 -0.795763657628257 2.941711402846774 Q -0.825133075697842 3.0077866424017987 -0.9376739809212727 3.072860021378849 L -0.9826903430106451 3.098889372969669 L -1.1253512123064857 2.852165080749071 Q -1.204494980780167 2.899082709757625 -1.2279545269550796 2.9444137112165287 Q -1.2514140731299923 2.989744712675433 -1.2218807703634849 3.040820969661451 Q -1.2018581922167002 3.07544894049943 -1.1618919864314117 3.080640510120264 Q -1.1219257806461231 3.0858320797410985 -1.075178020014852 3.058801599242939 L -1.0346322992676131 3.128923240189846 Q -1.110813835111166 3.172972912112772 -1.1791741591143705 3.157631266106658 Q -1.2475344831175748 3.1422896201005432 -1.2860779460501353 3.075630776237434 Q -1.336134391417097 2.9890608491424877 -1.3042090296265527 2.9134217635151294 M -0.9625428392469209 2.9878980305501326 Q -0.897615393925711 2.9503556965249116 -0.8748655403394132 2.9117882988709085 Q -0.8521156867531157 2.873220901216905 -0.8736399582609091 2.835995832566078 Q -0.9001698743053987 2.790113771205756 -0.9458985549882486 2.785943907538206 Q -0.9916272356710985 2.7817740438706555 -1.061654601073505 2.8164895749021386 L -0.9625428392469209 2.9878980305501326 M -0.2981369125541101 3.2221901081009037 L -0.21609136395945217 3.2998916393329303 L -0.529518981937637 3.947875534417153 L -0.5984953281012875 3.882551238248635 L -0.5274139697424276 3.73914468158591 L -0.7249041398109848 3.55211090729289 L -0.8642357775317725 3.630880791957292 L -0.9281296560833645 3.5703698649801385 L -0.2981369125541101 3.2221901081009037 M -0.4905557061698994 3.663868733193226 L -0.34835454682065203 3.3784693108396935 Q -0.34163207564481357 3.365553878934797 -0.3274034025441226 3.342531175753075 Q -0.3131747294434315 3.319508472571353 -0.30771217871339984 3.3122862471856545 L -0.31061644592029036 3.3095357505048746 Q -0.31753113025376734 3.3153827275501833 -0.3397465381734074 3.330841564859761 Q -0.36196194609304744 3.346300402169339 -0.37449295168266694 3.3537148407126764 L -0.6524686029540474 3.5105285432397575 L -0.4905557061698994 3.663868733193226 M -0.07879411960642807 3.619920957171441 L -0.025849338211716144 3.652183166070804 L -0.04819775994589898 3.709997939667101 L -0.043074071423830074 3.713120088915427 Q 0.02992394933160092 3.6721165650938126 0.10336348481458846 3.716867370986478 Q 0.15716221429631183 3.7496499380938957 0.16625604240916214 3.7991049913266437 Q 0.17534987052201256 3.8485600445593917 0.1316397810454556 3.9202916838683564 L -0.06557597980710467 4.243938008845708 L -0.13559972294204625 4.20126863578526 L 0.05849388866218852 3.882745999329977 Q 0.08503215727295521 3.839194646892391 0.07947448688484915 3.811801905155625 Q 0.07391681649674309 3.784409163418859 0.04317468536432967 3.7656762679289058 Q 0.008162813796858903 3.7443415813986816 -0.0364686767970841 3.7628153478625834 Q -0.08110016739102704 3.7812891143264853 -0.11544380912260743 3.8376496880692432 L -0.28247879390802133 4.111767023999929 L -0.3525025370429629 4.06909765093948 L -0.07879411960642807 3.619920957171441 M 0.19110304651923077 4.344525668305646 Q 0.16286312204382902 4.299910573711736 0.19209308500560704 4.221160276790053 Q 0.22723863570964967 4.126472419777079 0.30450671845014843 4.115152376066587 Q 0.3817748011906472 4.103832332356095 0.5027127571775161 4.148721204047398 L 0.5263751081465744 4.084970963682227 Q 0.5406421138779185 4.046533318756167 0.5314225167418333 4.019644677499155 Q 0.522202919605748 3.9927560362421435 0.4781402534709973 3.976401176013529 Q 0.43782760147537436 3.9614382187830954 0.41166361632543835 3.977326764376507 Q 0.38549963117550223 3.993215309969919 0.37332047994142803 4.026027933687287 L 0.36914477094688836 4.0372779761046695 L 0.2932069846295521 4.009091940391526 Q 0.29435733559204 4.0031189434332894 0.2999249475847596 3.988118886876779 Q 0.32428325005290803 3.922493639442044 0.3806314911355858 3.9028753895993997 Q 0.4369797322182637 3.883257139756755 0.5091675043964723 3.9100512724717182 Q 0.5832302836442446 3.9375413566857715 0.6075073465528127 3.987085520989284 Q 0.6317844094613807 4.036629685292796 0.6070781312436874 4.103192436262313 L 0.5044252851279193 4.379755979022982 Q 0.49850969738565465 4.3956935391142755 0.5028779439180053 4.406914876923672 Q 0.507246190450356 4.418136214733069 0.5184962328677392 4.422311923727609 L 0.5484963459807608 4.433447147713048 L 0.5286617282566972 4.486884849195619 Q 0.503860941496955 4.490479425123012 0.4738608283839333 4.479344201137573 Q 0.4438607152709116 4.468208977152133 0.4297939648901372 4.444321186678232 Q 0.4157272145093628 4.420433396204332 0.41866645871745667 4.3895244841645145 L 0.413978941043547 4.3877846054167895 Q 0.38374567061292425 4.411762707073693 0.34607573870592 4.4169805830900115 Q 0.3084058067989158 4.42219845910633 0.2699681618728567 4.407931453374985 Q 0.21934297099463257 4.389140762899557 0.19110304651923077 4.344525668305646 M 0.3671527788023316 4.350137420531869 Q 0.3958100034150545 4.344774261248765 0.42107534458314216 4.322685518965417 Q 0.4463406857512298 4.30059677668207 0.46060769148257386 4.262159131756011 L 0.47731052746073277 4.2171589620864784 Q 0.39293520933035914 4.185841144627431 0.3436140473995003 4.189401058360936 Q 0.2942928854686415 4.192960972094442 0.2744582677445778 4.246398673577012 Q 0.2594953105141438 4.286711325572635 0.26946407100624553 4.310144716583137 Q 0.2794328314983472 4.33357810759364 0.3131829587504966 4.3461052345772595 Q 0.33849555418960875 4.355500579814974 0.3671527788023316 4.350137420531869 M 0.8452714112137707 3.820391968403241 L 0.9252770185647383 3.8383670286925087 L 0.7667895967459513 4.54378232277482 L 0.6867839893949836 4.525807262485553 L 0.8452714112137707 3.820391968403241 M 0.9264306806566716 4.753143113754953 L 0.9319081341712014 4.6964069039503125 L 0.9607739251244395 4.699193678545424 Q 1.0394083211694674 4.706785236925211 1.0755358177715022 4.59272909290276 L 0.9658272347907231 4.053691963550477 L 1.0554107239559447 4.062340574362893 L 1.1138247988515697 4.383439929476054 L 1.1316668520859468 4.479599490292344 L 1.1356483404932898 4.479983872995118 L 1.1677670837020897 4.386638351759832 L 1.272401842156148 4.0832894316640775 L 1.355017726608519 4.091265372746638 L 1.1736861227914632 4.57507923101977 Q 1.138389071925769 4.670127209431647 1.0932408778513478 4.721526534055793 Q 1.0480926837769264 4.77292585867994 0.9843888692594355 4.766775735435555 Q 0.9485554735933468 4.7633162911105895 0.9264306806566716 4.753143113754953 M 1.4634682262767131 4.576091268413282 L 1.6622319192889334 4.145684490655143 L 1.447857701348207 4.1620763997050965 L 1.4422920764149672 4.089288874543826 L 1.7693373949477964 4.064281683062968 L 1.7722345695705788 4.102171079722259 L 1.5725500286100293 4.53365118830361 L 1.8168369281238803 4.514972036130408 L 1.8224025530571202 4.587759561291678 L 1.466441642336937 4.614977754458344 L 1.4634682262767131 4.576091268413282 M 2.056800866424353 4.490281406614806 Q 1.9922004520016674 4.439613009596377 1.955386154117623 4.300398400193107 Q 1.9193388207728292 4.164084095152406 1.9495815839848376 4.086783543580619 Q 1.979824347196846 4.0094829920088335 2.07650115928245 3.983917507367136 Q 2.161576753917781 3.961419880882442 2.2176202075695555 4.0071104849797985 Q 2.27366366122133 4.052801089077155 2.306898791255537 4.17848094478844 L 2.32019284326922 4.228752887072954 L 2.0446639288252495 4.3016145183017915 Q 2.069150942816467 4.39030153057413 2.106730224535938 4.424842051494473 Q 2.1443095062554094 4.459382572414816 2.2013488253859155 4.444298936476214 Q 2.2400195502201568 4.434072742619535 2.2555244140957864 4.396872619014926 Q 2.271029277971416 4.359672495410317 2.2572239162648993 4.307467016884091 L 2.3355321340542385 4.286758974324316 Q 2.3580297605389324 4.371834568959647 2.325274499388745 4.4337667323885395 Q 2.2925192382385573 4.495698895817432 2.2180780929326427 4.515384318991539 Q 2.121401280847039 4.540949803633237 2.056800866424353 4.490281406614806 M 2.2183879810871616 4.180165131042323 Q 2.1992138676058883 4.10765752197812 2.1679744299367933 4.075577971885909 Q 2.1367349922676984 4.0434984217936965 2.095163963070889 4.054491580189627 Q 2.043925252665519 4.068041287049726 2.0278929542034705 4.111069945011877 Q 2.0118606557414225 4.154098602974028 2.0269678931576665 4.230784790632884 L 2.2183879810871616 4.180165131042323 M 2.527810968812993 3.650340855973325 L 2.6050871159139755 3.608241009308196 L 2.933274556962594 4.210643701481761 L 2.855998409861612 4.25274354814689 L 2.527810968812993 3.650340855973325 M 2.821197473045107 3.6697214484778886 L 2.8708198883911518 3.6325513543802863 L 2.916194441758252 3.674778714074401 L 2.9209966109852887 3.6711816081939874 Q 2.9100466458250125 3.588174992415553 2.9788777380792038 3.536616474796298 Q 3.029300514963088 3.49884686305196 3.078594538233291 3.5087765795552985 Q 3.127888561503494 3.5187062960586375 3.178248043829278 3.5859366652371496 L 3.405465231942041 3.8892736880782945 L 3.3398355858392073 3.9384341351106076 L 3.1162155036068575 3.639899281496499 Q 3.085640103623346 3.5990808430666883 3.0581431226463187 3.594064266828955 Q 3.0306461416692914 3.5890476905912214 3.0018331263070714 3.6106303258737 Q 2.969018303255655 3.635210549389856 2.9695891876499165 3.6835109022975567 Q 2.970160072044178 3.731811255205257 3.0097282367287224 3.7846351167026593 L 3.202173401330825 4.041551170349117 L 3.1365437552279913 4.09071161738143 L 2.821197473045107 3.6697214484778886 M 3.2084556685945596 3.3604847343718935 L 3.250079823128173 3.314534437753027 L 3.302673916573667 3.3473347629746866 L 3.306702060560791 3.3428879600760864 Q 3.280124942539838 3.2634923884256453 3.3378616730219473 3.1997548802123785 Q 3.380157184886748 3.153063449777078 3.4304401735977734 3.153411366846086 Q 3.480723162308799 3.153759283915094 3.542978402889199 3.210153299734829 L 3.823868119317433 3.464597728254823 L 3.7688168181600727 3.5253707012023563 L 3.4923739046304387 3.274954416669486 Q 3.454576079992339 3.240715192778933 3.426627047462896 3.241033910001826 Q 3.398678014933454 3.2413526272247193 3.3745091510107104 3.2680334446163197 Q 3.3469835004320303 3.2984199310900864 3.3567540353340917 3.3457251807747417 Q 3.366524570236153 3.3930304304593975 3.4154394021207533 3.4373400143177606 L 3.653343357195854 3.6528457176288898 L 3.5982920560384937 3.7136186905764235 L 3.2084556685945596 3.3604847343718935 M 3.9464161998261527 3.2031357429480116 Q 3.864074892432339 3.208828641741904 3.7442975519771577 3.136348377438553 Q 3.624520211521977 3.063868113135202 3.5913619406197226 2.9882835309059357 Q 3.558203669717469 2.9126989486766695 3.6063512738618373 2.833132572517156 Q 3.654498878006206 2.7535661963576428 3.73684018540002 2.7478732975637508 Q 3.8191814927938337 2.7421803987698583 3.9389588332490146 2.814660663073209 Q 4.058736173704196 2.88714092737656 4.09189444460645 2.9627255096058267 Q 4.125052715508704 3.038310091835093 4.0769051113643355 3.1178764679946065 Q 4.028757507219966 3.1974428441541196 3.9464161998261527 3.2031357429480116 M 3.9106907385244454 2.898074779508275 L 3.878179746115182 2.8784015649116514 Q 3.7216136510916233 2.7836595051437 3.6688066013848966 2.870925853189618 Q 3.6159995516781693 2.9581922012355353 3.7725656467017274 3.052934261003487 L 3.805076639110991 3.072607475600111 Q 3.961642734134549 3.1673495353680625 4.014449783841276 3.0800831873221446 Q 4.0672568335480035 2.992816839276227 3.9106907385244454 2.898074779508275 M 3.753183258897687 2.599364288027997 L 3.7850538014437505 2.5151961912346184 L 4.05989480549489 2.543346191095387 L 4.1970247655524195 2.55677653191833 L 4.198441234110023 2.553035727616402 L 4.084002104862899 2.471208557940554 L 3.862251337833105 2.311322356779546 L 3.8916430604033643 2.233700667514541 L 4.33008713805738 2.5611816452370944 L 4.298570712650717 2.644414540954991 L 3.753183258897687 2.599364288027997 M 4.418584747063495 2.2044280834879353 Q 4.379591037312237 2.2400299177080245 4.296944565669535 2.2250112385047123 Q 4.197572022384858 2.2069530647007296 4.172923651418495 2.132852067347762 Q 4.148275280452133 2.0587510699947935 4.171339680657219 1.931829702829215 L 4.104435394089317 1.9196717244265336 Q 4.064096044835141 1.9123411786249171 4.03923225195658 1.9261176732332 Q 4.01436845907802 1.9398941678414832 4.005965150476166 1.9861368364987093 Q 3.9982770170744715 2.0284439588872356 4.0184932124859225 2.051428854864507 Q 4.038709407897374 2.0744137508417793 4.0731454377485 2.080671533843159 L 4.0849520765546 2.0828170594436326 L 4.070469778751407 2.16251187138481 Q 4.064387665548317 2.162422995151748 4.048645480473517 2.1595622943511175 Q 3.9797734207712647 2.147046728348357 3.9506102460204273 2.0949937818568074 Q 3.92144707126959 2.0429408353652576 3.9352141938726266 1.9671815696927806 Q 3.9493389040757414 1.8894545308859534 3.9938783456299696 1.8568932326004508 Q 4.038417787184198 1.824331934314948 4.1082737334536255 1.8370262941177478 L 4.398520270770258 1.8897704651293799 Q 4.4152463424122335 1.8928099597300503 4.425531671917124 1.8865480113930049 Q 4.435817001422015 1.8802860630559595 4.4379625270224885 1.8684794242498592 L 4.44368392862375 1.8369950541002582 L 4.499765462952727 1.8471863007025058 Q 4.507638638157959 1.8709773307808297 4.5019172365566975 1.9024617009304305 Q 4.496195834955436 1.9339460710800314 4.475133753329025 1.9519707407736044 Q 4.454071671702614 1.9699954104671775 4.423124724287048 1.9725026890033948 L 4.422230755286851 1.97742212183927 Q 4.451123136002838 2.0030000485840715 4.462843501910668 2.039178536985145 Q 4.474563867818497 2.075357025386218 4.467233322016881 2.115696374640394 Q 4.457578456814751 2.1688262492678456 4.418584747063495 2.2044280834879353 M 4.393345663908278 2.0301065739674975 Q 4.383057210401638 2.00282750278753 4.356893257470606 1.9818109006115665 Q 4.330729304539573 1.9607942984356028 4.290389955285397 1.9534637526339862 L 4.243163400060996 1.9448816502320936 Q 4.227071958057447 2.033431441277846 4.239195911682761 2.0813716097015305 Q 4.251319865308075 2.1293117781252153 4.307401399637051 2.1395030247274627 Q 4.349708522025577 2.147191158129158 4.371039315019005 2.1332808285043248 Q 4.392370108012433 2.119370498879491 4.398806684813853 2.08395058246119 Q 4.403634117414917 2.0573856451474644 4.393345663908278 2.0301065739674975 M 4.487868401091607 1.6458899364415118 Q 4.452605104820846 1.6666444524831017 4.4006382421292995 1.6647883323366859 L 4.058856183657974 1.6525807729121818 L 4.05724992583896 1.6975520963952508 L 3.9842964455219807 1.6949463892666288 L 3.9859027033409946 1.6499750657835595 L 3.8406382458346418 1.6267751221330873 L 3.8429227013994613 1.562815906512722 L 3.9888296620334196 1.5680273207699666 L 3.991363979925641 1.497072565941124 L 4.06431746024262 1.4996782730697462 L 4.061783142350398 1.5706330278985887 L 4.405563926309862 1.5829119765594937 Q 4.453533338025135 1.5846253182331083 4.45521098508055 1.5376552692619025 L 4.456067655917357 1.5136705634042658 L 4.513031332329245 1.515705156641683 Q 4.51863486799345 1.5269123145356351 4.522043357769419 1.5435445782855617 Q 4.525451847545386 1.5601768420354882 4.524916428272381 1.5751672831965113 Q 4.523131697362366 1.6251354203999218 4.487868401091607 1.6458899364415118 M 4.458861659578687 1.308271370477107 Q 4.399098931914034 1.3645644995612192 4.255943458070171 1.3801372420473403 Q 4.115770389931389 1.3953855523983338 4.043864270977508 1.3539185768998674 Q 3.9719581520236282 1.3124516014014007 3.961143747519378 1.2130380778987182 Q 3.951627071555637 1.1255541772163573 4.0051878608904 1.0769770030927306 Q 4.058748650225162 1.0283998289691036 4.18798623077865 1.0143411031135776 L 4.239681263000045 1.0087176127713673 L 4.27050231583716 1.292046154754013 Q 4.361854613414585 1.2811027673750754 4.40162846728207 1.2491138544750098 Q 4.441402321149554 1.2171249415749443 4.435021822492047 1.1584709627083616 Q 4.430696060690346 1.1187055533072885 4.396234204065946 1.0978098494904915 Q 4.361772347441546 1.0769141456736944 4.308089044750098 1.0827539241059898 L 4.299329377101655 1.002228970068817 Q 4.386813277784015 0.9927122941050762 4.443148084527416 1.0343642994491613 Q 4.499482891270817 1.0760163047932465 4.50780998273909 1.1525647178903122 Q 4.5186243872433405 1.2519782413929947 4.458861659578687 1.308271370477107 M 4.176409778716742 1.1021077582717775 Q 4.10184963608973 1.1102185616499656 4.065457530914619 1.1363071545772134 Q 4.029065425739508 1.1623957475044615 4.033715619676336 1.205143562610615 Q 4.039447254063589 1.2578327300670369 4.0795931425707215 1.2801219121061538 Q 4.119739031077854 1.3024110941452707 4.197822299635159 1.2989465348070892 L 4.176409778716742 1.1021077582717775" fill="#e8a941" fill-rule="nonzero"></path></g><g transform="matrix(1,0,0,1,0,0)" clip-path="url(#SvgjsClipPath49869)"><g clip-path="url(#SvgjsClipPath49867fce45d03-047d-4ae4-a5e2-f8d0f7fd9fdd)"><path d=" M 0.0632432555859778 0.5669958925655992 L 0.5582222617328695 0.8525044625809011 L 1.0056774342024288 0.594047920966537 C 1.0012906187860613 0.5863709939878926 0.9972693713210572 0.5790596349606121 0.9936136918074242 0.5710171400306036 C 0.9393577399848025 0.464310406862452 0.9287386062974792 0.3406827146754569 0.9640026877469334 0.22628656189433 L 0.9665616634064765 0.21678179515886548 C 0.9943843867022809 0.13139143758396107 1.0466193434752957 0.05602567270222109 1.1168100914170942 1.875812791334575e-16 C 1.0221990335367557 0.02665685294333505 0.9313133836997393 0.06509902645547583 0.8462898074077129 0.1144227687769394 L 0.06287768763461452 0.5669958925655992 Z M 1.1054774849248081 0.5366537526023853 L 1.0963382861407018 0.5194720588882763 C 1.0552707048563776 0.4376668335458358 1.048048134261802 0.34298549902416564 1.0762320488156807 0.25589756595481594 L 1.0802532962806848 0.2478550710248074 L 1.0802532962806848 0.24419939151116718 C 1.1439407864547089 0.06543287123069261 1.3388774775956673 -0.029598765700523513 1.5189348379175092 0.03034213996321389 L 1.525880628993428 0.032535547671398025 C 1.7052406824119024 0.0956441101081552 1.80123903987955 0.29056463288510204 1.7419312882495663 0.4712170893082253 C 1.7343497994139607 0.49393462070134175 1.7245542516062444 0.515852158921095 1.712685852140431 0.5366537526023858 L 1.4099955884110238 0.3619122718503825 L 1.10767089263298 0.5366537526023853 Z M 1.8102924951546384 0.594047920966537 L 2.257747667624198 0.8525044625809011 L 2.7527266737710896 0.5669958925655992 L 1.9689489860466278 0.1144227687769391 C 1.8840078240367264 0.06519235477427587 1.7932550291689813 0.02675443218482747 1.6987942699886098 3.75162558266915e-16 C 1.84946498092259 0.1213112123861569 1.9092979599551978 0.3232293192431493 1.8490426979992274 0.5070427485418996 C 1.8389719572930499 0.5372301255966708 1.8259943528843017 0.5663685204012149 1.8102924951546384 0.5940479209665374 Z" fill="#bdbfc3" transform="matrix(1,0,0,1,0,0)" fill-rule="evenodd"></path></g><g clip-path="url(#SvgjsClipPath49867fce45d03-047d-4ae4-a5e2-f8d0f7fd9fdd)"><path d=" M 2.8159699293570672 0.6770318459261702 L 2.3217220591129104 0.962540415941472 L 2.3217220591129104 1.4794534991702 C 2.371377218431864 1.4793292879613646 2.42073614499568 1.487103318895167 2.4679492396585236 1.5024842801061333 L 2.4701426473667034 1.5024842801061333 C 2.5861062412769815 1.5412537211642987 2.6820352729002397 1.6243046088162107 2.737007251862436 1.7335232253681956 C 2.7587012086039664 1.776677778991 2.7736206044494223 1.8229155760326898 2.781240973977498 1.8706112071297043 C 2.805574249923901 1.7759022255691816 2.817856905170557 1.6785007694632321 2.817797769113892 1.5807158216980344 L 2.817797769113892 0.6770318459261702 Z M 2.3217220591129104 1.594607403849867 C 2.3589622040695186 1.5944362493774211 2.395988926321489 1.6002371025302307 2.4313924445221224 1.6117890975639766 L 2.4313924445221224 1.6117890975639766 C 2.6136726811198523 1.6718762812700803 2.7133886783179575 1.8677178469619504 2.654754462805535 2.050470639200803 L 2.654754462805535 2.0530296148603515 C 2.6115586897355394 2.183699681492692 2.4956956741489056 2.276852548318959 2.3587976820101733 2.2909763181130995 C 2.221899689871433 2.3051000879072396 2.0894584702727275 2.237564776180786 2.020494067188948 2.1184662781545116 L 2.3231843309183633 1.9437247974025087 L 2.3231843309183633 1.594607403849867 Z M 1.9195973126124872 2.175860446518663 L 1.4717765721915643 2.4343169881330273 L 1.4717765721915643 3.0056996961149953 L 2.2548231240132997 2.5534921402776987 C 2.340083044853243 2.5047784150543815 2.4188208850578863 2.4454486540265425 2.489152180837635 2.376922819768876 C 2.275698883504425 2.4597659770839013 2.0337358280030435 2.3743489805975333 1.9195973126124872 2.175860446518663 Z" fill="#262626" transform="matrix(1,0,0,1,0,0)" fill-rule="evenodd"></path></g><g clip-path="url(#SvgjsClipPath49867fce45d03-047d-4ae4-a5e2-f8d0f7fd9fdd)"><path d=" M 1.344193357165511 3.0056996961149953 L 1.344193357165511 2.4343169881330278 L 0.8963726167445881 2.1758604465186635 C 0.7860961921344165 2.366530985183443 0.557173398195559 2.4536742620761673 0.3480206896985516 2.384599746747521 C 0.3403437627199144 2.3824063390393366 0.33303240369262455 2.379481795428424 0.3257210446653427 2.376922819768876 C 0.3961374131586448 2.4454529868893466 0.47485976607042285 2.504893889867976 0.5600501014896779 2.553857708229063 L 1.343096653311413 3.0056996961149953 Z M 0.7958414301194744 2.1184662781545116 C 0.7211248029228967 2.2474940418993734 0.5727130283530725 2.3148313126320557 0.4264108344076468 2.286084030266752 C 0.28010864046223716 2.257336747901448 0.16820981167989277 2.1388503985702636 0.14786924903588852 1.9911446109112891 C 0.12752868639188428 1.8434388232523147 0.2032362319706457 1.6991172018536793 0.3363225152548942 1.6318953348889975 C 0.38510883311747973 1.6074958148161838 0.43897037353883794 1.5949698751833106 0.49351673434143045 1.5953385397525952 L 0.49351673434143045 1.942262525597053 L 0.7958414301194744 2.1170040063490556 Z M 0.49351673434143045 1.4790879312188356 L 0.49351673434143045 0.962540415941472 L -0.0007311359027265868 0.6770318459261702 L -0.0007311359027265868 1.5818125255521263 C -0.000632562537176477 1.6794671326400843 0.011647855414785874 1.7767280428196879 0.03582565923365077 1.8713423430323328 C 0.03982961843016904 1.8465308951276025 0.04581981907608868 1.8220810965728595 0.05373848885051617 1.7982287527596272 C 0.11646262155820561 1.6078284192342125 0.29414775285299277 1.4790582660404739 0.49461343819552034 1.4787223632674718 Z" fill="#e8a941" transform="matrix(1,0,0,1,0,0)" fill-rule="evenodd"></path></g><g clip-path="url(#SvgjsClipPath49867fce45d03-047d-4ae4-a5e2-f8d0f7fd9fdd)"><path d=" M 1.3014219068559256 0.6942135396402792 C 1.435397710932725 0.7374440657769576 1.5822272925211287 0.6958859274170589 1.673673010492521 0.5888528711550904 C 1.7651187284639132 0.48181981489312214 1.7832465103490178 0.33030285736924525 1.7196316432163654 0.20471805276385271 C 1.6791710412663055 0.1240436458420654 1.6088938058554907 0.062288836367258855 1.5236872212852481 0.032535547671398025 L 1.5167414302093294 0.03034213996321389 C 1.3366840698874956 -0.029598765700523607 1.141747378746537 0.06543287123069254 1.078059888572505 0.24419939151116718 L 1.078059888572505 0.24785507102480744 L 1.0762320488156807 0.2558975659548159 C 1.0174143974850605 0.43877371871381593 1.1173924927334176 0.6348091995929608 1.2999596350504723 0.6945791075916431 Z" fill="#bdbfc3" transform="matrix(1,0,0,1,0,0)" fill-rule="evenodd"></path></g><g clip-path="url(#SvgjsClipPath49867fce45d03-047d-4ae4-a5e2-f8d0f7fd9fdd)"><path d=" M 2.2124172416550616 2.2752949292896774 C 2.3003529162571303 2.3043872686118068 2.396249507963664 2.2973041155503315 2.4789565543298413 2.255607694165062 C 2.5616636006960185 2.213911272779792 2.624386781010003 2.14102691225215 2.6532921910000735 2.053029614860352 L 2.6532921910000735 2.0504706392008036 C 2.711926406512496 1.8677178469619504 2.612210409314391 1.6718762812700803 2.429930172716661 1.6117890975639761 L 2.429930172716661 1.6117890975639761 C 2.2467080965736987 1.5517245602058192 2.0494853286811665 1.6515634717530796 1.9894207913230042 1.8347855478960302 C 1.9293562539648421 2.018007624038981 2.0291951655121068 2.21523039193152 2.2124172416550616 2.2752949292896774 Z" fill="#262626" transform="matrix(1,0,0,1,0,0)" fill-rule="evenodd"></path></g><g clip-path="url(#SvgjsClipPath49867fce45d03-047d-4ae4-a5e2-f8d0f7fd9fdd)"><path d=" M 0.3853086207376795 2.2752949292896774 C 0.5679173801065356 2.3348569185898818 0.7642542158123272 2.235215974469192 0.823990162374504 2.0526640469089874 L 0.823990162374504 2.050470639200803 C 0.8828394971407287 1.867700603807018 0.7830488679786639 1.6717124614265346 0.6006281440910916 1.6117890975639761 L 0.6006281440910916 1.6117890975639761 C 0.4174060679481451 1.5517245602058185 0.22018330005561274 1.6515634717530794 0.16011876269745065 1.83478554789603 C 0.10005422533928854 2.018007624038981 0.19989313688655336 2.21523039193152 0.3831152130294998 2.2752949292896774 Z" fill="#e8a941" transform="matrix(1,0,0,1,0,0)" fill-rule="evenodd"></path></g></g></g><defs><clipPath id="SvgjsClipPath49869"><path d=" M 0 0 h 2.8159699293570672 v 3.005699696114995 h -2.8159699293570672 Z"></path></clipPath><clipPath id="SvgjsClipPath49867fce45d03-047d-4ae4-a5e2-f8d0f7fd9fdd"><path d=" M 0 0 L 2.8159699293570672 0 L 2.8159699293570672 3.005699696114995 L 0 3.005699696114995 Z"></path></clipPath></defs></svg>