<svg version="1.1" id="Layer_1" xmlns="http://www.w3.org/2000/svg" xmlns:xlink="http://www.w3.org/1999/xlink" x="0px" y="0px"
	 width="100%" viewBox="0 0 836 780" enable-background="new 0 0 836 780" xml:space="preserve">
<path fill="#000000" opacity="1.000000" stroke="none" 
	d="
M1.000000,279.000000 
	C1.000000,186.014282 1.000000,93.528572 1.000000,1.021428 
	C279.609344,1.021428 558.218689,1.021428 836.914062,1.021428 
	C836.914062,260.902496 836.914062,520.805054 836.914062,780.853760 
	C558.333374,780.853760 279.666718,780.853760 1.000000,780.853760 
	C1.000000,613.781067 1.000000,446.640533 1.000000,279.000000 
M528.851685,724.018127 
	C531.607056,722.478516 534.561218,721.208435 537.081116,719.349609 
	C545.065369,713.460022 550.608459,705.467468 554.945923,696.737488 
	C558.813660,688.952942 561.140259,680.760559 561.099121,671.783630 
	C560.893188,626.789307 560.913330,581.793152 561.101074,536.798706 
	C561.129883,529.888428 560.305542,521.963928 569.456360,519.075928 
	C571.410461,518.459229 573.338806,517.746582 575.318054,517.226624 
	C580.834900,515.777344 586.363098,513.233398 591.903015,513.190063 
	C634.895874,512.853699 677.892456,513.020691 720.887939,512.994446 
	C730.066345,512.988831 738.770325,510.568726 746.470642,505.811707 
	C752.854797,501.867737 758.818054,497.090485 764.429688,492.079712 
	C775.684875,482.029572 781.393677,468.381226 781.670898,454.088135 
	C782.568909,407.777069 781.980530,361.437714 782.049744,315.109344 
	C782.056091,310.858795 782.560852,306.597229 783.028748,302.362244 
	C783.576233,297.407745 785.027893,292.451721 784.849548,287.541321 
	C784.554932,279.429352 786.191528,271.335083 783.301270,263.109314 
	C781.413513,257.736847 782.063599,251.375961 782.051086,245.456833 
	C781.965820,205.127930 782.156067,164.797775 781.888672,124.470467 
	C781.830505,115.706238 783.872925,106.735863 780.061523,98.123428 
	C777.569763,92.492958 776.075989,86.391411 773.308105,80.919235 
	C768.750122,71.908226 761.481262,65.108627 752.851562,60.085686 
	C746.269714,56.254757 739.465210,51.752911 732.218689,50.355476 
	C720.237549,48.045025 707.832703,47.400414 695.583740,47.146961 
	C680.679382,46.838562 665.752258,47.875904 650.833679,47.924095 
	C640.083435,47.958824 629.332764,47.250225 618.579224,47.011879 
	C600.665405,46.614826 582.746033,46.433762 564.836182,45.915234 
	C560.850403,45.799831 556.891235,44.097881 552.924866,44.118149 
	C545.950500,44.153782 539.056274,43.703350 531.973694,45.679771 
	C525.468628,47.495037 518.228027,46.783222 511.305664,46.975975 
	C474.813354,47.992119 438.259216,44.971630 401.798401,48.899979 
	C392.619720,49.888905 383.311737,49.858696 374.060120,49.937782 
	C365.314728,50.012535 357.606262,53.698799 350.814545,58.109062 
	C339.600494,65.391029 329.484497,73.829437 324.378662,87.460968 
	C321.223480,95.884712 318.086853,103.997055 318.037903,112.977394 
	C317.916168,135.307709 317.996948,157.639130 317.996796,179.970108 
	C317.996582,207.124557 317.996765,234.279007 317.996765,262.248566 
	C312.991425,263.169067 308.022583,264.020752 303.082764,265.016418 
	C300.448792,265.547363 297.885193,266.800537 295.254944,266.913300 
	C283.178253,267.431152 271.090515,267.875336 259.004333,267.950287 
	C234.674500,268.101135 210.342834,267.940369 186.012482,268.039673 
	C181.099426,268.059692 176.120911,268.260468 171.290588,269.076508 
	C159.889542,271.002625 147.730408,268.377686 137.081482,274.952789 
	C131.865723,278.173218 125.766045,280.218658 121.139511,284.081207 
	C112.621849,291.192291 105.761276,300.060425 102.163124,310.648346 
	C99.605186,318.175354 97.302788,326.236176 97.220085,334.083374 
	C96.754738,378.240479 97.011055,422.404999 96.980225,466.567017 
	C96.976074,472.510681 97.232567,478.221161 94.189079,484.050751 
	C89.583694,492.872009 91.646103,502.791107 92.748550,512.155090 
	C94.036316,523.093201 97.264145,533.663330 97.154785,544.949280 
	C96.755959,586.107788 97.035378,627.272461 96.963913,668.434692 
	C96.949356,676.819336 98.801697,684.737366 102.003227,692.392883 
	C105.529465,700.825073 109.792847,708.836487 116.643547,715.098389 
	C131.097229,728.309875 148.326828,734.236023 167.744781,733.975342 
	C180.831543,733.799622 193.913940,733.111450 206.999344,733.078918 
	C217.416718,733.053040 227.834976,733.697693 238.254135,734.000061 
	C262.165710,734.694092 286.033112,733.432434 310.018433,736.461487 
	C325.024902,738.356689 340.651428,738.048218 356.194641,734.498230 
	C368.386139,731.713684 381.585144,733.073120 394.336365,733.079590 
	C407.754486,733.086426 421.170685,733.807251 434.590729,733.969360 
	C448.420593,734.136475 462.254547,734.081543 476.085754,733.984680 
	C489.366913,733.891663 502.833252,735.286499 515.701294,730.880249 
	C520.114746,729.369080 524.033752,726.413696 528.062439,724.054443 
	C528.062439,724.054443 528.118103,724.174744 528.851685,724.018127 
z"/>
<path fill="#FEFCF9" opacity="1.000000" stroke="none" 
	d="
M528.178650,724.118042 
	C524.033752,726.413696 520.114746,729.369080 515.701294,730.880249 
	C502.833252,735.286499 489.366913,733.891663 476.085754,733.984680 
	C462.254547,734.081543 448.420593,734.136475 434.590729,733.969360 
	C421.170685,733.807251 407.754486,733.086426 394.336365,733.079590 
	C381.585144,733.073120 368.386139,731.713684 356.194641,734.498230 
	C340.651428,738.048218 325.024902,738.356689 310.018433,736.461487 
	C286.033112,733.432434 262.165710,734.694092 238.254135,734.000061 
	C227.834976,733.697693 217.416718,733.053040 206.999344,733.078918 
	C193.913940,733.111450 180.831543,733.799622 167.744781,733.975342 
	C148.326828,734.236023 131.097229,728.309875 116.643547,715.098389 
	C109.792847,708.836487 105.529465,700.825073 102.003227,692.392883 
	C98.801697,684.737366 96.949356,676.819336 96.963913,668.434692 
	C97.035378,627.272461 96.755959,586.107788 97.154785,544.949280 
	C97.264145,533.663330 94.036316,523.093201 92.748550,512.155090 
	C91.646103,502.791107 89.583694,492.872009 94.189079,484.050751 
	C97.232567,478.221161 96.976074,472.510681 96.980225,466.567017 
	C97.011055,422.404999 96.754738,378.240479 97.220085,334.083374 
	C97.302788,326.236176 99.605186,318.175354 102.163124,310.648346 
	C105.761276,300.060425 112.621849,291.192291 121.139511,284.081207 
	C125.766045,280.218658 131.865723,278.173218 137.081482,274.952789 
	C147.730408,268.377686 159.889542,271.002625 171.290588,269.076508 
	C176.120911,268.260468 181.099426,268.059692 186.012482,268.039673 
	C210.342834,267.940369 234.674500,268.101135 259.004333,267.950287 
	C271.090515,267.875336 283.178253,267.431152 295.254944,266.913300 
	C297.885193,266.800537 300.448792,265.547363 303.082764,265.016418 
	C308.022583,264.020752 312.991425,263.169067 317.996765,262.248566 
	C317.996765,234.279007 317.996582,207.124557 317.996796,179.970108 
	C317.996948,157.639130 317.916168,135.307709 318.037903,112.977394 
	C318.086853,103.997055 321.223480,95.884712 324.378662,87.460968 
	C329.484497,73.829437 339.600494,65.391029 350.814545,58.109062 
	C357.606262,53.698799 365.314728,50.012535 374.060120,49.937782 
	C383.311737,49.858696 392.619720,49.888905 401.798401,48.899979 
	C438.259216,44.971630 474.813354,47.992119 511.305664,46.975975 
	C518.228027,46.783222 525.468628,47.495037 531.973694,45.679771 
	C539.056274,43.703350 545.950500,44.153782 552.924866,44.118149 
	C556.891235,44.097881 560.850403,45.799831 564.836182,45.915234 
	C582.746033,46.433762 600.665405,46.614826 618.579224,47.011879 
	C629.332764,47.250225 640.083435,47.958824 650.833679,47.924095 
	C665.752258,47.875904 680.679382,46.838562 695.583740,47.146961 
	C707.832703,47.400414 720.237549,48.045025 732.218689,50.355476 
	C739.465210,51.752911 746.269714,56.254757 752.851562,60.085686 
	C761.481262,65.108627 768.750122,71.908226 773.308105,80.919235 
	C776.075989,86.391411 777.569763,92.492958 780.061523,98.123428 
	C783.872925,106.735863 781.830505,115.706238 781.888672,124.470467 
	C782.156067,164.797775 781.965820,205.127930 782.051086,245.456833 
	C782.063599,251.375961 781.413513,257.736847 783.301270,263.109314 
	C786.191528,271.335083 784.554932,279.429352 784.849548,287.541321 
	C785.027893,292.451721 783.576233,297.407745 783.028748,302.362244 
	C782.560852,306.597229 782.056091,310.858795 782.049744,315.109344 
	C781.980530,361.437714 782.568909,407.777069 781.670898,454.088135 
	C781.393677,468.381226 775.684875,482.029572 764.429688,492.079712 
	C758.818054,497.090485 752.854797,501.867737 746.470642,505.811707 
	C738.770325,510.568726 730.066345,512.988831 720.887939,512.994446 
	C677.892456,513.020691 634.895874,512.853699 591.903015,513.190063 
	C586.363098,513.233398 580.834900,515.777344 575.318054,517.226624 
	C573.338806,517.746582 571.410461,518.459229 569.456360,519.075928 
	C560.305542,521.963928 561.129883,529.888428 561.101074,536.798706 
	C560.913330,581.793152 560.893188,626.789307 561.099121,671.783630 
	C561.140259,680.760559 558.813660,688.952942 554.945923,696.737488 
	C550.608459,705.467468 545.065369,713.460022 537.081116,719.349609 
	C534.561218,721.208435 531.607056,722.478516 528.396362,723.743164 
	C528.629761,722.786133 529.229858,721.972412 530.020020,721.441284 
	C549.913635,708.067871 558.890198,689.103882 558.876099,665.456177 
	C558.848877,619.642273 558.869568,573.828308 558.870483,528.014404 
	C558.870544,526.099182 558.870483,524.183960 558.870483,522.236206 
	C552.563049,522.236206 547.138245,522.236206 541.092041,522.236206 
	C541.092041,524.491577 541.092041,526.440491 541.092041,528.389343 
	C541.091797,574.203308 541.108398,620.017212 541.060364,665.831116 
	C541.056335,669.641357 541.020996,673.528625 540.310669,677.248474 
	C536.091553,699.342407 515.928467,714.452148 494.603729,714.240295 
	C448.128021,713.778687 401.644531,714.099365 355.164215,714.100342 
	C353.229553,714.100342 351.294922,714.100342 349.304474,714.100342 
	C349.304474,720.388977 349.304474,725.927063 349.304474,731.629639 
	C351.024750,731.733032 352.332764,731.879944 353.640808,731.880249 
	C400.787384,731.891357 447.934052,731.946716 495.080383,731.840332 
	C504.824860,731.818359 514.192810,729.609253 523.080688,725.466125 
	C524.648743,724.735107 526.472778,724.553406 528.178650,724.118042 
M361.715118,443.488251 
	C361.820221,443.976196 361.925354,444.464172 361.971588,445.801941 
	C363.879059,453.891846 368.014832,460.254822 376.280365,464.161316 
	C377.591736,464.499908 378.903076,464.838501 380.637512,465.730652 
	C381.084076,465.788727 381.530609,465.846802 382.897278,466.116455 
	C385.054993,466.197571 387.212646,466.348663 389.370392,466.349457 
	C428.926025,466.363556 468.481659,466.363037 508.037292,466.347656 
	C509.687866,466.347015 511.338409,466.172363 513.766418,466.001556 
	C513.842163,465.001648 513.917969,464.001740 514.215576,462.087219 
	C514.224121,427.195190 514.245544,392.303192 514.229492,357.411163 
	C514.226501,350.940338 514.072632,344.469574 514.150085,337.186707 
	C512.604614,324.157318 505.965942,316.905914 492.241577,313.946014 
	C460.631897,313.901733 429.022247,313.834686 397.412567,313.825775 
	C386.606201,313.822754 375.799805,313.965546 364.077606,313.873199 
	C360.107300,313.739807 361.699310,316.796906 361.695679,318.490967 
	C361.609558,358.518494 361.625641,398.546234 361.641541,438.573944 
	C361.642120,440.058319 361.829712,441.542603 361.715118,443.488251 
M361.966003,527.475159 
	C361.630585,527.331177 361.329773,527.384033 360.434418,527.406311 
	C359.991669,527.407410 359.548920,527.408569 358.324982,527.057068 
	C347.198944,525.576965 337.086273,521.607483 328.191193,514.703308 
	C313.237732,503.096710 305.569489,487.575378 303.838684,468.035797 
	C303.837189,428.875732 303.850403,389.715698 303.810913,350.555664 
	C303.807068,346.736847 303.477936,342.918396 302.937134,338.227051 
	C274.631226,338.161011 246.325302,338.094940 217.180786,337.888977 
	C187.789627,340.540863 165.069519,364.955475 164.942322,394.442108 
	C164.781281,431.774689 164.892273,469.108490 164.894730,506.441742 
	C164.897003,541.274963 164.699600,576.109924 164.985001,610.940918 
	C165.221756,639.837402 189.827576,665.000366 218.985153,666.039856 
	C291.981140,666.059387 364.977112,666.079407 437.973083,666.091675 
	C438.636353,666.091797 439.299622,665.988892 440.802338,666.063782 
	C442.941254,665.759216 445.095459,665.536316 447.216736,665.137756 
	C471.740662,660.529114 492.248840,638.011292 493.149872,614.050720 
	C493.149872,585.354492 493.149872,556.658325 493.149872,528.029358 
	C492.053009,527.841858 491.571228,527.687195 491.089478,527.687439 
	C448.175079,527.708923 405.260651,527.742188 361.966003,527.475159 
M388.822906,255.311386 
	C431.833588,255.318787 474.844299,255.326172 518.655457,255.747772 
	C529.666138,256.675140 539.785156,260.147064 548.841675,266.510956 
	C563.666199,276.927948 571.994690,291.407318 575.150818,309.886292 
	C575.333618,323.016632 575.623535,336.146545 575.677856,349.277435 
	C575.807251,380.540863 575.825256,411.804718 575.752808,443.518311 
	C575.752808,443.518311 575.902771,443.963562 576.234009,444.807800 
	C604.162292,444.881348 632.090576,444.954926 660.881226,445.168945 
	C688.934753,443.551514 713.136597,419.782715 714.158569,392.074280 
	C714.177856,318.712250 714.197998,245.350204 714.206787,171.988159 
	C714.206909,170.995529 714.062378,170.002869 714.102844,168.172409 
	C710.931213,139.515137 685.748474,116.554993 657.067383,116.858330 
	C586.207764,116.844254 515.348206,116.829506 444.488586,116.824364 
	C443.661713,116.824303 442.834869,116.948708 441.126831,116.870110 
	C411.985046,118.006927 388.507416,140.314072 386.008209,169.999557 
	C385.980621,197.090302 385.936859,224.181046 385.975067,251.271698 
	C385.976898,252.576126 386.701355,253.879517 387.486481,255.332184 
	C387.486481,255.332184 387.873505,255.158554 388.822906,255.311386 
M762.837646,256.357971 
	C762.090820,260.736206 763.843872,262.550659 768.299316,261.897186 
	C769.930237,261.657990 771.625610,261.860626 773.291626,261.858490 
	C779.962769,261.849915 779.972046,261.849457 779.972351,255.384018 
	C779.974426,209.069397 779.777283,162.753708 780.032593,116.440506 
	C780.241882,78.483398 749.427368,51.355927 715.687988,51.756237 
	C669.046753,52.309616 622.394043,51.890549 575.746216,51.903545 
	C573.982910,51.904037 572.219666,52.067551 570.010437,52.177238 
	C570.010437,55.974140 570.009705,59.273296 570.010620,62.572453 
	C570.012695,69.824944 570.013000,69.827057 577.412720,69.827736 
	C624.060486,69.832008 670.708313,69.827499 717.356079,69.843208 
	C732.826294,69.848427 744.961304,76.584724 754.019897,88.793793 
	C760.714905,97.817261 762.827271,108.396049 762.831116,119.447708 
	C762.846863,164.762726 762.837402,210.077744 762.837646,256.357971 
M335.190216,261.849518 
	C339.521240,261.754120 338.000061,258.414062 338.003632,256.312531 
	C338.081543,210.327942 338.414886,164.339523 337.934021,118.359848 
	C337.637482,90.001190 359.616394,69.068756 386.454956,69.585701 
	C432.256042,70.467888 478.086456,69.828705 523.904541,69.827309 
	C525.237366,69.827271 526.701111,70.154716 527.865906,69.708420 
	C529.015564,69.267891 530.655640,68.083900 530.709961,67.146675 
	C530.994202,62.240341 530.842712,57.308765 530.842712,52.070068 
	C528.374756,52.070068 526.726562,52.070061 525.078369,52.070072 
	C478.260620,52.070324 431.442810,52.042427 384.625092,52.079998 
	C348.994354,52.108593 320.968719,80.130272 320.923370,115.825249 
	C320.863922,162.642944 320.903534,209.460770 320.918854,256.278534 
	C320.919403,258.023834 321.111572,259.769073 321.234711,261.857513 
	C325.965515,261.857513 330.109039,261.857513 335.190216,261.849518 
M320.906616,305.660889 
	C320.907196,352.654053 320.894684,399.647247 320.934937,446.640381 
	C320.937897,450.123596 320.942383,453.677765 321.584412,457.078461 
	C327.857788,490.305847 352.795288,510.903046 386.603607,510.911591 
	C431.097198,510.922791 475.590820,510.914459 520.084412,510.914520 
	C530.890015,510.914520 530.890015,510.914520 530.880981,500.082306 
	C530.875244,493.184479 530.875244,493.178101 524.149902,493.177216 
	C477.323303,493.170990 430.496674,493.188141 383.670166,493.121582 
	C380.203979,493.116638 376.606323,493.006744 373.294342,492.113312 
	C351.307892,486.182129 338.089355,468.749176 338.073334,445.865814 
	C338.040955,399.705811 338.062958,353.545715 338.062500,307.385681 
	C338.062500,305.440826 338.062500,303.495941 338.062500,300.977539 
	C332.818848,300.977539 328.181763,300.764252 323.594360,301.146881 
	C322.606934,301.229218 321.798889,303.462616 320.906616,305.660889 
M585.503662,510.920319 
	C628.667236,510.918701 671.831177,510.809357 714.994263,510.948303 
	C751.988770,511.067413 780.012146,481.070465 779.396057,446.924530 
	C778.554443,400.276398 779.186951,353.601685 779.187500,306.938354 
	C779.187500,305.157532 779.187500,303.376678 779.187500,301.363342 
	C773.200500,301.363342 767.840698,301.363342 762.043457,301.363342 
	C762.043457,303.735382 762.043457,305.706421 762.043457,307.677490 
	C762.043335,353.507538 761.479126,399.347168 762.256836,445.164001 
	C762.715698,472.194092 740.441040,493.999664 714.283813,493.445374 
	C668.307800,492.471069 622.296204,493.174255 576.299500,493.176910 
	C574.966492,493.176971 573.525269,492.890686 572.334167,493.307861 
	C571.351074,493.652222 569.994995,494.810516 569.955811,495.661163 
	C569.729675,500.573761 569.845520,505.502136 569.845520,510.920593 
	C575.239319,510.920593 579.872375,510.920593 585.503662,510.920319 
M118.440117,713.059387 
	C131.087540,725.763428 146.586395,731.759705 164.299774,731.830994 
	C203.780304,731.989990 243.261932,731.882080 282.743103,731.882568 
	C290.406128,731.882629 298.074585,732.029419 305.727325,731.748291 
	C307.157501,731.695801 309.625854,730.029785 309.729889,728.930115 
	C310.176971,724.202576 309.920776,719.408508 309.920776,714.106323 
	C307.293488,714.106323 305.337250,714.106384 303.381012,714.106323 
	C256.736481,714.104492 210.091141,714.233643 163.448425,713.942688 
	C157.291382,713.904358 150.679977,712.790710 145.083145,710.339233 
	C126.208321,702.071411 117.223633,686.818115 117.162857,666.444641 
	C117.025696,620.466858 117.119133,574.488403 117.118767,528.510193 
	C117.118744,526.432434 117.118767,524.354736 117.118767,522.280273 
	C110.985497,522.280273 105.743195,522.280273 100.198334,522.280273 
	C100.111710,524.246460 99.977646,525.874573 99.977310,527.502747 
	C99.967674,574.480469 99.931885,621.458191 99.993858,668.435852 
	C100.016396,685.520081 106.015251,700.267639 118.440117,713.059387 
M99.970955,346.500916 
	C99.970955,391.755188 99.970955,437.009491 99.970955,482.391052 
	C106.025238,482.391052 111.391609,482.391052 117.116241,482.391052 
	C117.116241,479.971222 117.116226,477.988647 117.116241,476.006073 
	C117.116516,430.021179 117.068916,384.036194 117.191048,338.051605 
	C117.203270,333.448975 117.681602,328.692627 118.906296,324.274475 
	C124.831352,302.899658 141.909164,290.044556 164.235657,290.011597 
	C210.720276,289.942993 257.205048,289.987030 303.689758,289.984802 
	C305.616791,289.984711 307.543823,289.984802 309.628418,289.984802 
	C309.628418,283.974426 309.628418,278.731415 309.628418,273.117920 
	C307.722595,273.022522 306.105499,272.871246 304.488312,272.870850 
	C257.170532,272.859772 209.852585,272.788177 162.535065,272.898895 
	C140.598236,272.950256 123.493889,282.590424 110.897202,300.291779 
	C101.253235,313.843781 99.136971,329.348602 99.970955,346.500916 
M502.153046,272.984833 
	C451.228271,272.984833 400.303497,272.984833 349.349609,272.984833 
	C349.349609,278.964142 349.349609,284.324799 349.349609,289.986115 
	C351.798157,289.986115 353.782959,289.986115 355.767761,289.986115 
	C401.597076,289.986481 447.426514,289.931427 493.255463,290.064941 
	C498.355682,290.079803 503.635498,290.511963 508.519257,291.872864 
	C528.347412,297.398102 541.822266,315.618866 541.853333,336.613434 
	C541.922485,383.275909 541.874207,429.938538 541.890015,476.601105 
	C541.890686,478.526031 542.056641,480.450897 542.166687,482.831696 
	C546.328308,482.831696 549.976501,482.627991 553.591797,482.886108 
	C557.611816,483.173065 559.114136,481.883179 559.097229,477.590912 
	C558.912842,430.595581 559.020691,383.599060 558.793518,336.604065 
	C558.733948,324.267303 555.660706,312.561066 548.768494,302.082733 
	C537.891235,285.545929 522.683472,275.834564 502.153046,272.984833 
z"/>
<path fill="#FFC632" opacity="1.000000" stroke="none" 
	d="
M303.699341,468.956940 
	C305.569489,487.575378 313.237732,503.096710 328.191193,514.703308 
	C337.086273,521.607483 347.198944,525.576965 358.842712,527.585083 
	C361.252899,528.406189 363.145050,528.952698 365.037842,528.955017 
	C404.993958,529.004333 444.950134,528.992126 484.906311,528.992554 
	C492.000458,528.992676 492.002655,528.994019 492.002899,535.833252 
	C492.003815,560.306396 491.982208,584.779663 492.043671,609.252625 
	C492.048431,611.157043 492.630341,613.059998 492.944000,614.963623 
	C492.248840,638.011292 471.740662,660.529114 447.216736,665.137756 
	C445.095459,665.536316 442.941254,665.759216 440.086365,665.710815 
	C438.388824,665.243408 437.407288,665.029053 436.425659,665.028870 
	C365.056763,665.013306 293.687866,665.009766 222.319000,665.050415 
	C220.902985,665.051208 219.487259,665.584656 218.071396,665.869629 
	C189.827576,665.000366 165.221756,639.837402 164.985001,610.940918 
	C164.699600,576.109924 164.897003,541.274963 164.894730,506.441742 
	C164.892273,469.108490 164.781281,431.774689 164.942322,394.442108 
	C165.069519,364.955475 187.789627,340.540863 217.893692,338.253265 
	C220.419357,338.744232 222.232025,338.979492 224.044907,338.981201 
	C250.029922,339.005951 276.014954,338.999176 302.001587,339.468658 
	C302.002350,381.073456 301.979248,422.209625 302.072723,463.345551 
	C302.076965,465.217224 303.133148,467.086517 303.699341,468.956940 
z"/>
<path fill="#FFC632" opacity="1.000000" stroke="none" 
	d="
M657.992859,117.014603 
	C685.748474,116.554993 710.931213,139.515137 713.744751,168.881851 
	C713.258667,170.903549 713.019104,172.215775 713.018799,173.528061 
	C713.000793,245.126999 712.996399,316.725952 713.044373,388.324860 
	C713.045410,389.883636 713.667603,391.442017 714.000000,393.000580 
	C713.136597,419.782715 688.934753,443.551514 660.160522,444.793640 
	C657.637451,444.280548 655.835205,444.025269 654.032654,444.022522 
	C627.989380,443.982971 601.946045,443.977356 575.902771,443.963562 
	C575.902771,443.963562 575.752808,443.518311 576.136230,443.004028 
	C576.675171,441.851807 576.966614,441.213959 576.966980,440.575928 
	C576.992310,397.914215 577.008423,355.252472 576.923523,312.590942 
	C576.921204,311.404480 575.814514,310.220215 575.222778,309.034912 
	C571.994690,291.407318 563.666199,276.927948 548.841675,266.510956 
	C539.785156,260.147064 529.666138,256.675140 518.107910,255.218399 
	C516.297546,254.461609 515.034851,254.036545 513.771790,254.035446 
	C473.341278,254.000351 432.910706,253.993576 392.480286,254.054611 
	C390.944153,254.056931 389.409088,254.774353 387.873505,255.158554 
	C387.873505,255.158554 387.486481,255.332184 387.259216,254.774185 
	C387.016937,227.594269 387.017212,200.972305 386.951843,174.350510 
	C386.947540,172.595261 386.442566,170.841217 386.170471,169.086609 
	C388.507416,140.314072 411.985046,118.006927 441.863434,117.235748 
	C443.910675,117.733948 445.221252,117.982140 446.531921,117.982498 
	C515.455688,118.001274 584.379456,118.005554 653.303223,117.957947 
	C654.866638,117.956871 656.429626,117.342766 657.992859,117.014603 
z"/>
<path fill="#000000" opacity="1.000000" stroke="none" 
	d="
M375.869995,463.735260 
	C368.014832,460.254822 363.879059,453.891846 362.442932,445.256531 
	C363.276581,442.677734 363.951416,440.644928 363.955078,438.610901 
	C364.028656,397.752563 364.025024,356.894043 364.503174,316.024475 
	C405.632904,316.008911 446.296509,316.031311 486.959747,315.920441 
	C488.988190,315.914917 491.013489,314.752380 493.040253,314.128571 
	C505.965942,316.905914 512.604614,324.157318 513.675781,337.691437 
	C512.802551,340.031708 512.058960,341.866608 512.055725,343.702850 
	C511.988312,381.866821 511.933960,420.031281 512.099548,458.194672 
	C512.119019,462.678558 511.059265,464.131378 506.335632,464.106598 
	C468.672516,463.909027 431.007751,464.050842 393.343994,463.932007 
	C388.249542,463.915924 383.161713,462.976685 378.060486,462.607727 
	C377.361145,462.557159 376.601654,463.338867 375.869995,463.735260 
z"/>
<path fill="#B9B9A7" opacity="1.000000" stroke="none" 
	d="
M528.120544,724.086243 
	C526.472778,724.553406 524.648743,724.735107 523.080688,725.466125 
	C514.192810,729.609253 504.824860,731.818359 495.080383,731.840332 
	C447.934052,731.946716 400.787384,731.891357 353.640808,731.880249 
	C352.332764,731.879944 351.024750,731.733032 349.304474,731.629639 
	C349.304474,725.927063 349.304474,720.388977 349.304474,714.100342 
	C351.294922,714.100342 353.229553,714.100342 355.164215,714.100342 
	C401.644531,714.099365 448.128021,713.778687 494.603729,714.240295 
	C515.928467,714.452148 536.091553,699.342407 540.310669,677.248474 
	C541.020996,673.528625 541.056335,669.641357 541.060364,665.831116 
	C541.108398,620.017212 541.091797,574.203308 541.092041,528.389343 
	C541.092041,526.440491 541.092041,524.491577 541.092041,522.236206 
	C547.138245,522.236206 552.563049,522.236206 558.870483,522.236206 
	C558.870483,524.183960 558.870544,526.099182 558.870483,528.014404 
	C558.869568,573.828308 558.848877,619.642273 558.876099,665.456177 
	C558.890198,689.103882 549.913635,708.067871 530.020020,721.441284 
	C529.229858,721.972412 528.629761,722.786133 528.029602,723.821472 
	C528.118103,724.174744 528.062439,724.054443 528.120544,724.086243 
z"/>
<path fill="#B8B8A6" opacity="1.000000" stroke="none" 
	d="
M762.837402,255.875366 
	C762.837402,210.077744 762.846863,164.762726 762.831116,119.447708 
	C762.827271,108.396049 760.714905,97.817261 754.019897,88.793793 
	C744.961304,76.584724 732.826294,69.848427 717.356079,69.843208 
	C670.708313,69.827499 624.060486,69.832008 577.412720,69.827736 
	C570.013000,69.827057 570.012695,69.824944 570.010620,62.572453 
	C570.009705,59.273296 570.010437,55.974140 570.010437,52.177238 
	C572.219666,52.067551 573.982910,51.904037 575.746216,51.903545 
	C622.394043,51.890549 669.046753,52.309616 715.687988,51.756237 
	C749.427368,51.355927 780.241882,78.483398 780.032593,116.440506 
	C779.777283,162.753708 779.974426,209.069397 779.972351,255.384018 
	C779.972046,261.849457 779.962769,261.849915 773.291626,261.858490 
	C771.625610,261.860626 769.930237,261.657990 768.299316,261.897186 
	C763.843872,262.550659 762.090820,260.736206 762.837402,255.875366 
z"/>
<path fill="#B8B8A7" opacity="1.000000" stroke="none" 
	d="
M334.721375,261.853516 
	C330.109039,261.857513 325.965515,261.857513 321.234711,261.857513 
	C321.111572,259.769073 320.919403,258.023834 320.918854,256.278534 
	C320.903534,209.460770 320.863922,162.642944 320.923370,115.825249 
	C320.968719,80.130272 348.994354,52.108593 384.625092,52.079998 
	C431.442810,52.042427 478.260620,52.070324 525.078369,52.070072 
	C526.726562,52.070061 528.374756,52.070068 530.842712,52.070068 
	C530.842712,57.308765 530.994202,62.240341 530.709961,67.146675 
	C530.655640,68.083900 529.015564,69.267891 527.865906,69.708420 
	C526.701111,70.154716 525.237366,69.827271 523.904541,69.827309 
	C478.086456,69.828705 432.256042,70.467888 386.454956,69.585701 
	C359.616394,69.068756 337.637482,90.001190 337.934021,118.359848 
	C338.414886,164.339523 338.081543,210.327942 338.003632,256.312531 
	C338.000061,258.414062 339.521240,261.754120 334.721375,261.853516 
z"/>
<path fill="#B8B8A6" opacity="1.000000" stroke="none" 
	d="
M320.907410,305.183044 
	C321.798889,303.462616 322.606934,301.229218 323.594360,301.146881 
	C328.181763,300.764252 332.818848,300.977539 338.062500,300.977539 
	C338.062500,303.495941 338.062500,305.440826 338.062500,307.385681 
	C338.062958,353.545715 338.040955,399.705811 338.073334,445.865814 
	C338.089355,468.749176 351.307892,486.182129 373.294342,492.113312 
	C376.606323,493.006744 380.203979,493.116638 383.670166,493.121582 
	C430.496674,493.188141 477.323303,493.170990 524.149902,493.177216 
	C530.875244,493.178101 530.875244,493.184479 530.880981,500.082306 
	C530.890015,510.914520 530.890015,510.914520 520.084412,510.914520 
	C475.590820,510.914459 431.097198,510.922791 386.603607,510.911591 
	C352.795288,510.903046 327.857788,490.305847 321.584412,457.078461 
	C320.942383,453.677765 320.937897,450.123596 320.934937,446.640381 
	C320.894684,399.647247 320.907196,352.654053 320.907410,305.183044 
z"/>
<path fill="#B8B8A7" opacity="1.000000" stroke="none" 
	d="
M585.004517,510.920471 
	C579.872375,510.920593 575.239319,510.920593 569.845520,510.920593 
	C569.845520,505.502136 569.729675,500.573761 569.955811,495.661163 
	C569.994995,494.810516 571.351074,493.652222 572.334167,493.307861 
	C573.525269,492.890686 574.966492,493.176971 576.299500,493.176910 
	C622.296204,493.174255 668.307800,492.471069 714.283813,493.445374 
	C740.441040,493.999664 762.715698,472.194092 762.256836,445.164001 
	C761.479126,399.347168 762.043335,353.507538 762.043457,307.677490 
	C762.043457,305.706421 762.043457,303.735382 762.043457,301.363342 
	C767.840698,301.363342 773.200500,301.363342 779.187500,301.363342 
	C779.187500,303.376678 779.187500,305.157532 779.187500,306.938354 
	C779.186951,353.601685 778.554443,400.276398 779.396057,446.924530 
	C780.012146,481.070465 751.988770,511.067413 714.994263,510.948303 
	C671.831177,510.809357 628.667236,510.918701 585.004517,510.920471 
z"/>
<path fill="#B8B8A6" opacity="1.000000" stroke="none" 
	d="
M118.189728,712.808838 
	C106.015251,700.267639 100.016396,685.520081 99.993858,668.435852 
	C99.931885,621.458191 99.967674,574.480469 99.977310,527.502747 
	C99.977646,525.874573 100.111710,524.246460 100.198334,522.280273 
	C105.743195,522.280273 110.985497,522.280273 117.118767,522.280273 
	C117.118767,524.354736 117.118744,526.432434 117.118767,528.510193 
	C117.119133,574.488403 117.025696,620.466858 117.162857,666.444641 
	C117.223633,686.818115 126.208321,702.071411 145.083145,710.339233 
	C150.679977,712.790710 157.291382,713.904358 163.448425,713.942688 
	C210.091141,714.233643 256.736481,714.104492 303.381012,714.106323 
	C305.337250,714.106384 307.293488,714.106323 309.920776,714.106323 
	C309.920776,719.408508 310.176971,724.202576 309.729889,728.930115 
	C309.625854,730.029785 307.157501,731.695801 305.727325,731.748291 
	C298.074585,732.029419 290.406128,731.882629 282.743103,731.882568 
	C243.261932,731.882080 203.780304,731.989990 164.299774,731.830994 
	C146.586395,731.759705 131.087540,725.763428 118.189728,712.808838 
z"/>
<path fill="#B7B7A5" opacity="1.000000" stroke="none" 
	d="
M99.970840,346.001282 
	C99.136971,329.348602 101.253235,313.843781 110.897202,300.291779 
	C123.493889,282.590424 140.598236,272.950256 162.535065,272.898895 
	C209.852585,272.788177 257.170532,272.859772 304.488312,272.870850 
	C306.105499,272.871246 307.722595,273.022522 309.628418,273.117920 
	C309.628418,278.731415 309.628418,283.974426 309.628418,289.984802 
	C307.543823,289.984802 305.616791,289.984711 303.689758,289.984802 
	C257.205048,289.987030 210.720276,289.942993 164.235657,290.011597 
	C141.909164,290.044556 124.831352,302.899658 118.906296,324.274475 
	C117.681602,328.692627 117.203270,333.448975 117.191048,338.051605 
	C117.068916,384.036194 117.116516,430.021179 117.116241,476.006073 
	C117.116226,477.988647 117.116241,479.971222 117.116241,482.391052 
	C111.391609,482.391052 106.025238,482.391052 99.970955,482.391052 
	C99.970955,437.009491 99.970955,391.755188 99.970840,346.001282 
z"/>
<path fill="#B8B8A6" opacity="1.000000" stroke="none" 
	d="
M502.612488,273.017395 
	C522.683472,275.834564 537.891235,285.545929 548.768494,302.082733 
	C555.660706,312.561066 558.733948,324.267303 558.793518,336.604065 
	C559.020691,383.599060 558.912842,430.595581 559.097229,477.590912 
	C559.114136,481.883179 557.611816,483.173065 553.591797,482.886108 
	C549.976501,482.627991 546.328308,482.831696 542.166687,482.831696 
	C542.056641,480.450897 541.890686,478.526031 541.890015,476.601105 
	C541.874207,429.938538 541.922485,383.275909 541.853333,336.613434 
	C541.822266,315.618866 528.347412,297.398102 508.519257,291.872864 
	C503.635498,290.511963 498.355682,290.079803 493.255463,290.064941 
	C447.426514,289.931427 401.597076,289.986481 355.767761,289.986115 
	C353.782959,289.986115 351.798157,289.986115 349.349609,289.986115 
	C349.349609,284.324799 349.349609,278.964142 349.349609,272.984833 
	C400.303497,272.984833 451.228271,272.984833 502.612488,273.017395 
z"/>
<path fill="#141414" opacity="1.000000" stroke="none" 
	d="
M376.075195,463.948303 
	C376.601654,463.338867 377.361145,462.557159 378.060486,462.607727 
	C383.161713,462.976685 388.249542,463.915924 393.343994,463.932007 
	C431.007751,464.050842 468.672516,463.909027 506.335632,464.106598 
	C511.059265,464.131378 512.119019,462.678558 512.099548,458.194672 
	C511.933960,420.031281 511.988312,381.866821 512.055725,343.702850 
	C512.058960,341.866608 512.802551,340.031708 513.594910,338.097473 
	C514.072632,344.469574 514.226501,350.940338 514.229492,357.411163 
	C514.245544,392.303192 514.224121,427.195190 513.837036,462.755249 
	C513.302002,464.308411 513.145447,465.193604 512.988953,466.078766 
	C511.338409,466.172363 509.687866,466.347015 508.037292,466.347656 
	C468.481659,466.363037 428.926025,466.363556 389.370392,466.349457 
	C387.212646,466.348663 385.054993,466.197571 382.204163,465.776062 
	C381.078827,465.349518 380.646637,465.263336 380.214447,465.177124 
	C378.903076,464.838501 377.591736,464.499908 376.075195,463.948303 
z"/>
<path fill="#111110" opacity="1.000000" stroke="none" 
	d="
M492.640930,314.037292 
	C491.013489,314.752380 488.988190,315.914917 486.959747,315.920441 
	C446.296509,316.031311 405.632904,316.008911 364.489136,315.769714 
	C364.002411,315.356323 363.995941,315.186615 364.207306,314.911377 
	C364.704132,314.617737 364.893585,314.363037 364.993408,314.041718 
	C375.799805,313.965546 386.606201,313.822754 397.412567,313.825775 
	C429.022247,313.834686 460.631897,313.901733 492.640930,314.037292 
z"/>
<path fill="#FFC31B" opacity="1.000000" stroke="none" 
	d="
M303.769012,468.496368 
	C303.133148,467.086517 302.076965,465.217224 302.072723,463.345551 
	C301.979248,422.209625 302.002350,381.073456 302.327515,339.480621 
	C302.867828,339.049194 303.083801,339.074463 303.299805,339.099762 
	C303.477936,342.918396 303.807068,346.736847 303.810913,350.555664 
	C303.850403,389.715698 303.837189,428.875732 303.769012,468.496368 
z"/>
<path fill="#FEC200" opacity="1.000000" stroke="none" 
	d="
M714.079285,392.537415 
	C713.667603,391.442017 713.045410,389.883636 713.044373,388.324860 
	C712.996399,316.725952 713.000793,245.126999 713.018799,173.528061 
	C713.019104,172.215775 713.258667,170.903549 713.685974,169.300751 
	C714.062378,170.002869 714.206909,170.995529 714.206787,171.988159 
	C714.197998,245.350204 714.177856,318.712250 714.079285,392.537415 
z"/>
<path fill="#FFC300" opacity="1.000000" stroke="none" 
	d="
M493.046936,614.507202 
	C492.630341,613.059998 492.048431,611.157043 492.043671,609.252625 
	C491.982208,584.779663 492.003815,560.306396 492.002899,535.833252 
	C492.002655,528.994019 492.000458,528.992676 484.906311,528.992554 
	C444.950134,528.992126 404.993958,529.004333 365.037842,528.955017 
	C363.145050,528.952698 361.252899,528.406189 359.233337,527.761414 
	C359.548920,527.408569 359.991669,527.407410 360.943207,527.639160 
	C361.451996,527.871948 361.909546,527.919678 361.909546,527.919678 
	C361.909546,527.919678 362.346252,527.774719 362.346252,527.774719 
	C405.260651,527.742188 448.175079,527.708923 491.089478,527.687439 
	C491.571228,527.687195 492.053009,527.841858 493.149872,528.029358 
	C493.149872,556.658325 493.149872,585.354492 493.046936,614.507202 
z"/>
<path fill="#FFC100" opacity="1.000000" stroke="none" 
	d="
M218.528275,665.954712 
	C219.487259,665.584656 220.902985,665.051208 222.319000,665.050415 
	C293.687866,665.009766 365.056763,665.013306 436.425659,665.028870 
	C437.407288,665.029053 438.388824,665.243408 439.666656,665.645996 
	C439.299622,665.988892 438.636353,666.091797 437.973083,666.091675 
	C364.977112,666.079407 291.981140,666.059387 218.528275,665.954712 
z"/>
<path fill="#FFC61C" opacity="1.000000" stroke="none" 
	d="
M657.530151,116.936470 
	C656.429626,117.342766 654.866638,117.956871 653.303223,117.957947 
	C584.379456,118.005554 515.455688,118.001274 446.531921,117.982498 
	C445.221252,117.982140 443.910675,117.733948 442.304016,117.308205 
	C442.834869,116.948708 443.661713,116.824303 444.488586,116.824364 
	C515.348206,116.829506 586.207764,116.844254 657.530151,116.936470 
z"/>
<path fill="#FFC51A" opacity="1.000000" stroke="none" 
	d="
M575.186768,309.460602 
	C575.814514,310.220215 576.921204,311.404480 576.923523,312.590942 
	C577.008423,355.252472 576.992310,397.914215 576.966980,440.575928 
	C576.966614,441.213959 576.675171,441.851807 576.203979,442.779083 
	C575.825256,411.804718 575.807251,380.540863 575.677856,349.277435 
	C575.623535,336.146545 575.333618,323.016632 575.186768,309.460602 
z"/>
<path fill="#FFC200" opacity="1.000000" stroke="none" 
	d="
M388.348206,255.234970 
	C389.409088,254.774353 390.944153,254.056931 392.480286,254.054611 
	C432.910706,253.993576 473.341278,254.000351 513.771790,254.035446 
	C515.034851,254.036545 516.297546,254.461609 517.707703,255.011292 
	C474.844299,255.326172 431.833588,255.318787 388.348206,255.234970 
z"/>
<path fill="#1E1D1D" opacity="1.000000" stroke="none" 
	d="
M363.989502,315.016937 
	C363.995941,315.186615 364.002411,315.356323 364.022919,315.780823 
	C364.025024,356.894043 364.028656,397.752563 363.955078,438.610901 
	C363.951416,440.644928 363.276581,442.677734 362.472351,444.831604 
	C361.925354,444.464172 361.820221,443.976196 362.139587,442.978271 
	C362.709351,440.494995 362.980164,438.521820 362.981445,436.548431 
	C363.006409,397.927429 362.986023,359.306366 363.042023,320.685455 
	C363.044769,318.795471 363.659668,316.906433 363.989502,315.016937 
z"/>
<path fill="#000000" opacity="1.000000" stroke="none" 
	d="
M364.207306,314.911377 
	C363.659668,316.906433 363.044769,318.795471 363.042023,320.685455 
	C362.986023,359.306366 363.006409,397.927429 362.981445,436.548431 
	C362.980164,438.521820 362.709351,440.494995 362.247131,442.747620 
	C361.829712,441.542603 361.642120,440.058319 361.641541,438.573944 
	C361.625641,398.546234 361.609558,358.518494 361.695679,318.490967 
	C361.699310,316.796906 360.107300,313.739807 364.535522,313.957458 
	C364.893585,314.363037 364.704132,314.617737 364.207306,314.911377 
z"/>
<path fill="#FFC200" opacity="1.000000" stroke="none" 
	d="
M386.089325,169.543091 
	C386.442566,170.841217 386.947540,172.595261 386.951843,174.350510 
	C387.017212,200.972305 387.016937,227.594269 387.060638,254.699799 
	C386.701355,253.879517 385.976898,252.576126 385.975067,251.271698 
	C385.936859,224.181046 385.980621,197.090302 386.089325,169.543091 
z"/>
<path fill="#FFC400" opacity="1.000000" stroke="none" 
	d="
M303.118469,338.663391 
	C303.083801,339.074463 302.867828,339.049194 302.325928,339.011963 
	C276.014954,338.999176 250.029922,339.005951 224.044907,338.981201 
	C222.232025,338.979492 220.419357,338.744232 218.312988,338.323212 
	C246.325302,338.094940 274.631226,338.161011 303.118469,338.663391 
z"/>
<path fill="#FFC403" opacity="1.000000" stroke="none" 
	d="
M576.068359,444.385681 
	C601.946045,443.977356 627.989380,443.982971 654.032654,444.022522 
	C655.835205,444.025269 657.637451,444.280548 659.729370,444.723450 
	C632.090576,444.954926 604.162292,444.881348 576.068359,444.385681 
z"/>
<path fill="#000000" opacity="1.000000" stroke="none" 
	d="
M513.377686,466.040161 
	C513.145447,465.193604 513.302002,464.308411 513.726074,463.212524 
	C513.917969,464.001740 513.842163,465.001648 513.377686,466.040161 
z"/>
<path fill="#000000" opacity="1.000000" stroke="none" 
	d="
M380.425964,465.453918 
	C380.646637,465.263336 381.078827,465.349518 381.744080,465.670288 
	C381.530609,465.846802 381.084076,465.788727 380.425964,465.453918 
z"/>
<path fill="#FFC632" opacity="1.000000" stroke="none" 
	d="
M362.156128,527.624939 
	C362.346252,527.774719 361.909546,527.919678 361.909546,527.919678 
	C361.909546,527.919678 361.451996,527.871948 361.257812,527.752808 
	C361.329773,527.384033 361.630585,527.331177 362.156128,527.624939 
z"/>
</svg>