<svg xmlns="http://www.w3.org/2000/svg" viewBox="0 0 100 100" width="100" height="100">
  <!-- 원형 배경 -->
  <circle cx="50" cy="50" r="45" fill="#ffffff" stroke="#f0c000" stroke-width="2" />
  <!-- S 글자 -->
  <path d="M30,35 C30,30 40,25 45,30 C50,35 40,45 35,45 C30,45 20,50 25,60 C30,65 40,65 45,60" 
        fill="none" stroke="#f0c000" stroke-width="4" stroke-linecap="round" />
  <!-- B 글자 -->
  <path d="M50,30 L50,70 M50,30 C60,30 65,35 65,40 C65,45 60,50 50,50 M50,50 C60,50 68,55 68,60 C68,65 60,70 50,70" 
        fill="none" stroke="#f0c000" stroke-width="4" stroke-linecap="round" />
  <!-- L 글자 -->
  <path d="M75,30 L75,70 L85,70" 
        fill="none" stroke="#f0c000" stroke-width="4" stroke-linecap="round" />
</svg>